<mxfile host="app.diagrams.net" modified="2024-03-22T20:05:01.995Z" agent="Mozilla/5.0 (Windows NT 10.0; Win64; x64) AppleWebKit/537.36 (KHTML, like Gecko) Chrome/122.0.0.0 Safari/537.36 Edg/122.0.0.0" etag="UuD-rtjPkPr3g7I1NXjd" version="24.0.8" type="onedrive">
  <diagram name="Page-1" id="P0y6dDj6rNJ_2c-ejHO6">
    <mxGraphModel grid="1" page="1" gridSize="10" guides="1" tooltips="1" connect="1" arrows="1" fold="1" pageScale="1" pageWidth="827" pageHeight="1169" math="0" shadow="0">
      <root>
        <mxCell id="0" />
        <mxCell id="1" parent="0" />
        <mxCell id="Cx75ewkhD1ACkf9_SAcO-215" value="" style="group;movable=0;resizable=0;rotatable=0;deletable=0;editable=0;locked=1;connectable=0;" connectable="0" vertex="1" parent="1">
          <mxGeometry x="-680" y="-80" width="2070" height="3240" as="geometry" />
        </mxCell>
        <mxCell id="Cx75ewkhD1ACkf9_SAcO-90" value="input new price" style="shape=parallelogram;perimeter=parallelogramPerimeter;whiteSpace=wrap;html=1;fixedSize=1;movable=1;resizable=1;rotatable=1;deletable=1;editable=1;locked=0;connectable=1;" vertex="1" parent="Cx75ewkhD1ACkf9_SAcO-215">
          <mxGeometry x="1260" y="1415" width="120" height="50" as="geometry" />
        </mxCell>
        <mxCell id="Cx75ewkhD1ACkf9_SAcO-150" value="" style="group;movable=1;resizable=1;rotatable=1;deletable=1;editable=1;locked=0;connectable=1;" connectable="0" vertex="1" parent="Cx75ewkhD1ACkf9_SAcO-215">
          <mxGeometry width="2070" height="1680" as="geometry" />
        </mxCell>
        <mxCell id="Cx75ewkhD1ACkf9_SAcO-1" value="&lt;font color=&quot;#7f00ff&quot; style=&quot;font-size: 24px;&quot;&gt;Start&lt;/font&gt;" style="ellipse;whiteSpace=wrap;html=1;movable=1;resizable=1;rotatable=1;deletable=1;editable=1;locked=0;connectable=1;strokeColor=#7F00FF;" vertex="1" parent="Cx75ewkhD1ACkf9_SAcO-150">
          <mxGeometry x="1020" width="150" height="80" as="geometry" />
        </mxCell>
        <mxCell id="Cx75ewkhD1ACkf9_SAcO-4" value="3. Quit" style="rounded=1;whiteSpace=wrap;html=1;movable=1;resizable=1;rotatable=1;deletable=1;editable=1;locked=0;connectable=1;" vertex="1" parent="Cx75ewkhD1ACkf9_SAcO-150">
          <mxGeometry x="1280" y="280" width="140" height="60" as="geometry" />
        </mxCell>
        <mxCell id="Cx75ewkhD1ACkf9_SAcO-9" style="edgeStyle=orthogonalEdgeStyle;rounded=0;orthogonalLoop=1;jettySize=auto;html=1;movable=1;resizable=1;rotatable=1;deletable=1;editable=1;locked=0;connectable=1;" edge="1" parent="Cx75ewkhD1ACkf9_SAcO-150">
          <mxGeometry relative="1" as="geometry">
            <mxPoint x="1095" y="180" as="sourcePoint" />
            <mxPoint x="1095" y="280" as="targetPoint" />
          </mxGeometry>
        </mxCell>
        <mxCell id="Cx75ewkhD1ACkf9_SAcO-10" style="edgeStyle=orthogonalEdgeStyle;rounded=0;orthogonalLoop=1;jettySize=auto;html=1;movable=1;resizable=1;rotatable=1;deletable=1;editable=1;locked=0;connectable=1;" edge="1" parent="Cx75ewkhD1ACkf9_SAcO-150">
          <mxGeometry relative="1" as="geometry">
            <mxPoint x="1095" y="210" as="sourcePoint" />
            <mxPoint x="840" y="280" as="targetPoint" />
          </mxGeometry>
        </mxCell>
        <mxCell id="Cx75ewkhD1ACkf9_SAcO-11" style="edgeStyle=orthogonalEdgeStyle;rounded=0;orthogonalLoop=1;jettySize=auto;html=1;entryX=0.505;entryY=0.072;entryDx=0;entryDy=0;entryPerimeter=0;movable=1;resizable=1;rotatable=1;deletable=1;editable=1;locked=0;connectable=1;" edge="1" parent="Cx75ewkhD1ACkf9_SAcO-150" target="Cx75ewkhD1ACkf9_SAcO-4">
          <mxGeometry relative="1" as="geometry">
            <mxPoint x="1095" y="210" as="sourcePoint" />
          </mxGeometry>
        </mxCell>
        <mxCell id="Cx75ewkhD1ACkf9_SAcO-12" value="&lt;font color=&quot;#ff0000&quot;&gt;Main Menu&lt;/font&gt;" style="rounded=1;whiteSpace=wrap;html=1;movable=1;resizable=1;rotatable=1;deletable=1;editable=1;locked=0;connectable=1;strokeColor=#FF0000;" vertex="1" parent="Cx75ewkhD1ACkf9_SAcO-150">
          <mxGeometry x="1035" y="120" width="120" height="60" as="geometry" />
        </mxCell>
        <mxCell id="Cx75ewkhD1ACkf9_SAcO-14" style="edgeStyle=orthogonalEdgeStyle;rounded=0;orthogonalLoop=1;jettySize=auto;html=1;exitX=0.5;exitY=1;exitDx=0;exitDy=0;entryX=0.5;entryY=0;entryDx=0;entryDy=0;movable=1;resizable=1;rotatable=1;deletable=1;editable=1;locked=0;connectable=1;" edge="1" parent="Cx75ewkhD1ACkf9_SAcO-150" source="Cx75ewkhD1ACkf9_SAcO-1" target="Cx75ewkhD1ACkf9_SAcO-12">
          <mxGeometry relative="1" as="geometry" />
        </mxCell>
        <mxCell id="Cx75ewkhD1ACkf9_SAcO-31" style="edgeStyle=orthogonalEdgeStyle;rounded=0;orthogonalLoop=1;jettySize=auto;html=1;exitX=0;exitY=0.5;exitDx=0;exitDy=0;entryX=0.055;entryY=0.516;entryDx=0;entryDy=0;entryPerimeter=0;movable=1;resizable=1;rotatable=1;deletable=1;editable=1;locked=0;connectable=1;" edge="1" parent="Cx75ewkhD1ACkf9_SAcO-150" source="Cx75ewkhD1ACkf9_SAcO-22" target="Cx75ewkhD1ACkf9_SAcO-12">
          <mxGeometry relative="1" as="geometry">
            <mxPoint x="1030" y="160" as="targetPoint" />
            <Array as="points">
              <mxPoint x="1020" y="560" />
              <mxPoint x="1020" y="660" />
              <mxPoint x="620" y="660" />
              <mxPoint x="620" y="150" />
              <mxPoint x="1030" y="150" />
              <mxPoint x="1030" y="151" />
            </Array>
          </mxGeometry>
        </mxCell>
        <mxCell id="Cx75ewkhD1ACkf9_SAcO-32" value="while loop continues until quitting" style="edgeLabel;html=1;align=center;verticalAlign=middle;resizable=1;points=[];movable=1;rotatable=1;deletable=1;editable=1;locked=0;connectable=1;" connectable="0" vertex="1" parent="Cx75ewkhD1ACkf9_SAcO-31">
          <mxGeometry x="0.6499" y="3" relative="1" as="geometry">
            <mxPoint as="offset" />
          </mxGeometry>
        </mxCell>
        <mxCell id="Cx75ewkhD1ACkf9_SAcO-33" value="no" style="edgeLabel;html=1;align=center;verticalAlign=middle;resizable=1;points=[];movable=1;rotatable=1;deletable=1;editable=1;locked=0;connectable=1;" connectable="0" vertex="1" parent="Cx75ewkhD1ACkf9_SAcO-31">
          <mxGeometry x="-0.9634" relative="1" as="geometry">
            <mxPoint as="offset" />
          </mxGeometry>
        </mxCell>
        <mxCell id="Cx75ewkhD1ACkf9_SAcO-22" value="place order?" style="rhombus;whiteSpace=wrap;html=1;movable=1;resizable=1;rotatable=1;deletable=1;editable=1;locked=0;connectable=1;" vertex="1" parent="Cx75ewkhD1ACkf9_SAcO-150">
          <mxGeometry x="1060" y="520" width="80" height="80" as="geometry" />
        </mxCell>
        <mxCell id="Cx75ewkhD1ACkf9_SAcO-23" value="" style="group;movable=1;resizable=1;rotatable=1;deletable=1;editable=1;locked=0;connectable=1;" connectable="0" vertex="1" parent="Cx75ewkhD1ACkf9_SAcO-150">
          <mxGeometry x="1030" y="280" width="140" height="240" as="geometry" />
        </mxCell>
        <mxCell id="Cx75ewkhD1ACkf9_SAcO-2" value="1. customer experience" style="rounded=1;whiteSpace=wrap;html=1;movable=1;resizable=1;rotatable=1;deletable=1;editable=1;locked=0;connectable=1;" vertex="1" parent="Cx75ewkhD1ACkf9_SAcO-23">
          <mxGeometry width="140" height="60" as="geometry" />
        </mxCell>
        <mxCell id="Cx75ewkhD1ACkf9_SAcO-20" style="edgeStyle=orthogonalEdgeStyle;rounded=0;orthogonalLoop=1;jettySize=auto;html=1;exitX=0.5;exitY=1;exitDx=0;exitDy=0;movable=1;resizable=1;rotatable=1;deletable=1;editable=1;locked=0;connectable=1;" edge="1" parent="Cx75ewkhD1ACkf9_SAcO-23" source="Cx75ewkhD1ACkf9_SAcO-16">
          <mxGeometry relative="1" as="geometry">
            <mxPoint x="70" y="240" as="targetPoint" />
          </mxGeometry>
        </mxCell>
        <mxCell id="Cx75ewkhD1ACkf9_SAcO-16" value="&lt;font color=&quot;#0000ff&quot;&gt;Customer Menu&lt;/font&gt;" style="rounded=1;whiteSpace=wrap;html=1;movable=1;resizable=1;rotatable=1;deletable=1;editable=1;locked=0;connectable=1;strokeColor=#0000FF;" vertex="1" parent="Cx75ewkhD1ACkf9_SAcO-23">
          <mxGeometry x="10" y="120" width="120" height="60" as="geometry" />
        </mxCell>
        <mxCell id="Cx75ewkhD1ACkf9_SAcO-15" style="edgeStyle=orthogonalEdgeStyle;rounded=0;orthogonalLoop=1;jettySize=auto;html=1;exitX=0.5;exitY=1;exitDx=0;exitDy=0;movable=1;resizable=1;rotatable=1;deletable=1;editable=1;locked=0;connectable=1;" edge="1" parent="Cx75ewkhD1ACkf9_SAcO-23" source="Cx75ewkhD1ACkf9_SAcO-2" target="Cx75ewkhD1ACkf9_SAcO-16">
          <mxGeometry relative="1" as="geometry">
            <mxPoint x="70" y="120" as="targetPoint" />
          </mxGeometry>
        </mxCell>
        <mxCell id="Cx75ewkhD1ACkf9_SAcO-28" value="load data from customer, food and staff file" style="rounded=1;whiteSpace=wrap;html=1;movable=1;resizable=1;rotatable=1;deletable=1;editable=1;locked=0;connectable=1;" vertex="1" parent="Cx75ewkhD1ACkf9_SAcO-150">
          <mxGeometry x="779.9976190476191" y="400" width="120" height="60" as="geometry" />
        </mxCell>
        <mxCell id="Cx75ewkhD1ACkf9_SAcO-3" value="2. owner experience" style="rounded=1;whiteSpace=wrap;html=1;movable=1;resizable=1;rotatable=1;deletable=1;editable=1;locked=0;connectable=1;" vertex="1" parent="Cx75ewkhD1ACkf9_SAcO-150">
          <mxGeometry x="770" y="280" width="140" height="60" as="geometry" />
        </mxCell>
        <mxCell id="Cx75ewkhD1ACkf9_SAcO-17" style="edgeStyle=orthogonalEdgeStyle;rounded=0;orthogonalLoop=1;jettySize=auto;html=1;exitX=0.5;exitY=1;exitDx=0;exitDy=0;movable=1;resizable=1;rotatable=1;deletable=1;editable=1;locked=0;connectable=1;" edge="1" parent="Cx75ewkhD1ACkf9_SAcO-150" source="Cx75ewkhD1ACkf9_SAcO-3">
          <mxGeometry relative="1" as="geometry">
            <mxPoint x="840" y="400" as="targetPoint" />
          </mxGeometry>
        </mxCell>
        <mxCell id="Cx75ewkhD1ACkf9_SAcO-34" style="edgeStyle=orthogonalEdgeStyle;rounded=0;orthogonalLoop=1;jettySize=auto;html=1;exitX=0.5;exitY=1;exitDx=0;exitDy=0;movable=1;resizable=1;rotatable=1;deletable=1;editable=1;locked=0;connectable=1;" edge="1" parent="Cx75ewkhD1ACkf9_SAcO-150" source="Cx75ewkhD1ACkf9_SAcO-29">
          <mxGeometry relative="1" as="geometry">
            <mxPoint x="839.7142857142856" y="660" as="targetPoint" />
          </mxGeometry>
        </mxCell>
        <mxCell id="Cx75ewkhD1ACkf9_SAcO-37" value="after exiting owner menu it will come back to this menu" style="edgeLabel;html=1;align=center;verticalAlign=middle;resizable=1;points=[];movable=1;rotatable=1;deletable=1;editable=1;locked=0;connectable=1;" connectable="0" vertex="1" parent="Cx75ewkhD1ACkf9_SAcO-34">
          <mxGeometry x="0.0118" relative="1" as="geometry">
            <mxPoint as="offset" />
          </mxGeometry>
        </mxCell>
        <mxCell id="Cx75ewkhD1ACkf9_SAcO-29" value="&lt;font color=&quot;#ff0080&quot;&gt;owner menu&lt;/font&gt;" style="rounded=1;whiteSpace=wrap;html=1;movable=1;resizable=1;rotatable=1;deletable=1;editable=1;locked=0;connectable=1;strokeColor=#FF0080;" vertex="1" parent="Cx75ewkhD1ACkf9_SAcO-150">
          <mxGeometry x="780" y="510" width="120" height="60" as="geometry" />
        </mxCell>
        <mxCell id="Cx75ewkhD1ACkf9_SAcO-30" style="edgeStyle=orthogonalEdgeStyle;rounded=0;orthogonalLoop=1;jettySize=auto;html=1;exitX=0.5;exitY=1;exitDx=0;exitDy=0;entryX=0.5;entryY=0;entryDx=0;entryDy=0;movable=1;resizable=1;rotatable=1;deletable=1;editable=1;locked=0;connectable=1;" edge="1" parent="Cx75ewkhD1ACkf9_SAcO-150" source="Cx75ewkhD1ACkf9_SAcO-28" target="Cx75ewkhD1ACkf9_SAcO-29">
          <mxGeometry relative="1" as="geometry" />
        </mxCell>
        <mxCell id="Cx75ewkhD1ACkf9_SAcO-38" value="&lt;font color=&quot;#00ff80&quot;&gt;calls place order function&lt;/font&gt;" style="rounded=1;whiteSpace=wrap;html=1;movable=1;resizable=1;rotatable=1;deletable=1;editable=1;locked=0;connectable=1;strokeColor=#00FF80;" vertex="1" parent="Cx75ewkhD1ACkf9_SAcO-150">
          <mxGeometry x="1040" y="700" width="120" height="60" as="geometry" />
        </mxCell>
        <mxCell id="Cx75ewkhD1ACkf9_SAcO-39" style="edgeStyle=orthogonalEdgeStyle;rounded=0;orthogonalLoop=1;jettySize=auto;html=1;exitX=0.5;exitY=1;exitDx=0;exitDy=0;movable=1;resizable=1;rotatable=1;deletable=1;editable=1;locked=0;connectable=1;" edge="1" parent="Cx75ewkhD1ACkf9_SAcO-150" source="Cx75ewkhD1ACkf9_SAcO-22" target="Cx75ewkhD1ACkf9_SAcO-38">
          <mxGeometry relative="1" as="geometry" />
        </mxCell>
        <mxCell id="Cx75ewkhD1ACkf9_SAcO-40" value="yes" style="edgeLabel;html=1;align=center;verticalAlign=middle;resizable=1;points=[];movable=1;rotatable=1;deletable=1;editable=1;locked=0;connectable=1;" connectable="0" vertex="1" parent="Cx75ewkhD1ACkf9_SAcO-39">
          <mxGeometry x="-0.2515" y="1" relative="1" as="geometry">
            <mxPoint as="offset" />
          </mxGeometry>
        </mxCell>
        <mxCell id="Cx75ewkhD1ACkf9_SAcO-42" style="edgeStyle=orthogonalEdgeStyle;rounded=0;orthogonalLoop=1;jettySize=auto;html=1;exitX=1;exitY=0.5;exitDx=0;exitDy=0;entryX=-0.02;entryY=0.399;entryDx=0;entryDy=0;entryPerimeter=0;movable=1;resizable=1;rotatable=1;deletable=1;editable=1;locked=0;connectable=1;" edge="1" parent="Cx75ewkhD1ACkf9_SAcO-150" source="Cx75ewkhD1ACkf9_SAcO-38" target="Cx75ewkhD1ACkf9_SAcO-4">
          <mxGeometry relative="1" as="geometry">
            <Array as="points">
              <mxPoint x="1230" y="730" />
              <mxPoint x="1230" y="304" />
            </Array>
          </mxGeometry>
        </mxCell>
        <mxCell id="G4fQwwRvvV099wJtnHwn-15" style="edgeStyle=orthogonalEdgeStyle;rounded=0;orthogonalLoop=1;jettySize=auto;html=1;exitX=0.5;exitY=1;exitDx=0;exitDy=0;entryX=0.5;entryY=0;entryDx=0;entryDy=0;" edge="1" parent="Cx75ewkhD1ACkf9_SAcO-150" source="Cx75ewkhD1ACkf9_SAcO-43" target="G4fQwwRvvV099wJtnHwn-12">
          <mxGeometry relative="1" as="geometry" />
        </mxCell>
        <mxCell id="Cx75ewkhD1ACkf9_SAcO-43" value="&lt;font color=&quot;#ff0080&quot;&gt;owner menu&lt;/font&gt;" style="rounded=1;whiteSpace=wrap;html=1;strokeColor=#FF0080;movable=1;resizable=1;rotatable=1;deletable=1;editable=1;locked=0;connectable=1;" vertex="1" parent="Cx75ewkhD1ACkf9_SAcO-150">
          <mxGeometry x="1034" y="880" width="120" height="60" as="geometry" />
        </mxCell>
        <mxCell id="Cx75ewkhD1ACkf9_SAcO-62" style="edgeStyle=orthogonalEdgeStyle;rounded=0;orthogonalLoop=1;jettySize=auto;html=1;exitX=0.5;exitY=1;exitDx=0;exitDy=0;movable=1;resizable=1;rotatable=1;deletable=1;editable=1;locked=0;connectable=1;" edge="1" parent="Cx75ewkhD1ACkf9_SAcO-150" source="Cx75ewkhD1ACkf9_SAcO-44">
          <mxGeometry relative="1" as="geometry">
            <mxPoint x="206.8571428571429" y="1160" as="targetPoint" />
          </mxGeometry>
        </mxCell>
        <mxCell id="Cx75ewkhD1ACkf9_SAcO-68" style="edgeStyle=orthogonalEdgeStyle;rounded=0;orthogonalLoop=1;jettySize=auto;html=1;exitX=0.5;exitY=1;exitDx=0;exitDy=0;movable=1;resizable=1;rotatable=1;deletable=1;editable=1;locked=0;connectable=1;" edge="1" parent="Cx75ewkhD1ACkf9_SAcO-150" source="Cx75ewkhD1ACkf9_SAcO-44">
          <mxGeometry relative="1" as="geometry">
            <mxPoint x="206.8571428571429" y="1160" as="targetPoint" />
          </mxGeometry>
        </mxCell>
        <mxCell id="Cx75ewkhD1ACkf9_SAcO-44" value="1. add staff" style="rounded=1;whiteSpace=wrap;html=1;movable=1;resizable=1;rotatable=1;deletable=1;editable=1;locked=0;connectable=1;" vertex="1" parent="Cx75ewkhD1ACkf9_SAcO-150">
          <mxGeometry x="146.5" y="1060" width="120" height="60" as="geometry" />
        </mxCell>
        <mxCell id="Cx75ewkhD1ACkf9_SAcO-54" style="edgeStyle=orthogonalEdgeStyle;rounded=0;orthogonalLoop=1;jettySize=auto;html=1;exitX=0.5;exitY=1;exitDx=0;exitDy=0;entryX=0.5;entryY=0;entryDx=0;entryDy=0;movable=1;resizable=1;rotatable=1;deletable=1;editable=1;locked=0;connectable=1;" edge="1" parent="Cx75ewkhD1ACkf9_SAcO-150" source="Cx75ewkhD1ACkf9_SAcO-43" target="Cx75ewkhD1ACkf9_SAcO-44">
          <mxGeometry relative="1" as="geometry" />
        </mxCell>
        <mxCell id="Cx75ewkhD1ACkf9_SAcO-45" value="9. save and quit" style="rounded=1;whiteSpace=wrap;html=1;movable=1;resizable=1;rotatable=1;deletable=1;editable=1;locked=0;connectable=1;" vertex="1" parent="Cx75ewkhD1ACkf9_SAcO-150">
          <mxGeometry x="1940" y="1060" width="120" height="60" as="geometry" />
        </mxCell>
        <mxCell id="Cx75ewkhD1ACkf9_SAcO-61" style="edgeStyle=orthogonalEdgeStyle;rounded=0;orthogonalLoop=1;jettySize=auto;html=1;exitX=0.5;exitY=1;exitDx=0;exitDy=0;entryX=0.5;entryY=0;entryDx=0;entryDy=0;movable=1;resizable=1;rotatable=1;deletable=1;editable=1;locked=0;connectable=1;" edge="1" parent="Cx75ewkhD1ACkf9_SAcO-150" source="Cx75ewkhD1ACkf9_SAcO-43" target="Cx75ewkhD1ACkf9_SAcO-45">
          <mxGeometry relative="1" as="geometry" />
        </mxCell>
        <mxCell id="Cx75ewkhD1ACkf9_SAcO-46" value="2. display staff list" style="rounded=1;whiteSpace=wrap;html=1;movable=1;resizable=1;rotatable=1;deletable=1;editable=1;locked=0;connectable=1;" vertex="1" parent="Cx75ewkhD1ACkf9_SAcO-150">
          <mxGeometry x="370" y="1060" width="120" height="60" as="geometry" />
        </mxCell>
        <mxCell id="Cx75ewkhD1ACkf9_SAcO-55" style="edgeStyle=orthogonalEdgeStyle;rounded=0;orthogonalLoop=1;jettySize=auto;html=1;exitX=0.5;exitY=1;exitDx=0;exitDy=0;movable=1;resizable=1;rotatable=1;deletable=1;editable=1;locked=0;connectable=1;" edge="1" parent="Cx75ewkhD1ACkf9_SAcO-150" source="Cx75ewkhD1ACkf9_SAcO-43" target="Cx75ewkhD1ACkf9_SAcO-46">
          <mxGeometry relative="1" as="geometry" />
        </mxCell>
        <mxCell id="Cx75ewkhD1ACkf9_SAcO-47" value="3. add food items" style="rounded=1;whiteSpace=wrap;html=1;movable=1;resizable=1;rotatable=1;deletable=1;editable=1;locked=0;connectable=1;" vertex="1" parent="Cx75ewkhD1ACkf9_SAcO-150">
          <mxGeometry x="590" y="1060" width="120" height="60" as="geometry" />
        </mxCell>
        <mxCell id="Cx75ewkhD1ACkf9_SAcO-56" style="edgeStyle=orthogonalEdgeStyle;rounded=0;orthogonalLoop=1;jettySize=auto;html=1;exitX=0.5;exitY=1;exitDx=0;exitDy=0;entryX=0.5;entryY=0;entryDx=0;entryDy=0;movable=1;resizable=1;rotatable=1;deletable=1;editable=1;locked=0;connectable=1;" edge="1" parent="Cx75ewkhD1ACkf9_SAcO-150" source="Cx75ewkhD1ACkf9_SAcO-43" target="Cx75ewkhD1ACkf9_SAcO-47">
          <mxGeometry relative="1" as="geometry" />
        </mxCell>
        <mxCell id="Cx75ewkhD1ACkf9_SAcO-48" value="4. display food items" style="rounded=1;whiteSpace=wrap;html=1;movable=1;resizable=1;rotatable=1;deletable=1;editable=1;locked=0;connectable=1;" vertex="1" parent="Cx75ewkhD1ACkf9_SAcO-150">
          <mxGeometry x="810" y="1060" width="120" height="60" as="geometry" />
        </mxCell>
        <mxCell id="Cx75ewkhD1ACkf9_SAcO-57" style="edgeStyle=orthogonalEdgeStyle;rounded=0;orthogonalLoop=1;jettySize=auto;html=1;exitX=0.5;exitY=1;exitDx=0;exitDy=0;entryX=0.5;entryY=0;entryDx=0;entryDy=0;movable=1;resizable=1;rotatable=1;deletable=1;editable=1;locked=0;connectable=1;" edge="1" parent="Cx75ewkhD1ACkf9_SAcO-150" source="Cx75ewkhD1ACkf9_SAcO-43" target="Cx75ewkhD1ACkf9_SAcO-48">
          <mxGeometry relative="1" as="geometry" />
        </mxCell>
        <mxCell id="Cx75ewkhD1ACkf9_SAcO-59" style="edgeStyle=orthogonalEdgeStyle;rounded=0;orthogonalLoop=1;jettySize=auto;html=1;exitX=0.5;exitY=1;exitDx=0;exitDy=0;entryX=0.5;entryY=0;entryDx=0;entryDy=0;movable=1;resizable=1;rotatable=1;deletable=1;editable=1;locked=0;connectable=1;" edge="1" parent="Cx75ewkhD1ACkf9_SAcO-150" source="Cx75ewkhD1ACkf9_SAcO-43">
          <mxGeometry relative="1" as="geometry">
            <mxPoint x="1550" y="1060" as="targetPoint" />
          </mxGeometry>
        </mxCell>
        <mxCell id="Cx75ewkhD1ACkf9_SAcO-50" value="6. edit price" style="rounded=1;whiteSpace=wrap;html=1;movable=1;resizable=1;rotatable=1;deletable=1;editable=1;locked=0;connectable=1;" vertex="1" parent="Cx75ewkhD1ACkf9_SAcO-150">
          <mxGeometry x="1260" y="1060" width="120" height="60" as="geometry" />
        </mxCell>
        <mxCell id="Cx75ewkhD1ACkf9_SAcO-58" style="edgeStyle=orthogonalEdgeStyle;rounded=0;orthogonalLoop=1;jettySize=auto;html=1;exitX=0.5;exitY=1;exitDx=0;exitDy=0;entryX=0.5;entryY=0;entryDx=0;entryDy=0;movable=1;resizable=1;rotatable=1;deletable=1;editable=1;locked=0;connectable=1;" edge="1" parent="Cx75ewkhD1ACkf9_SAcO-150" source="Cx75ewkhD1ACkf9_SAcO-43" target="Cx75ewkhD1ACkf9_SAcO-50">
          <mxGeometry relative="1" as="geometry" />
        </mxCell>
        <mxCell id="Cx75ewkhD1ACkf9_SAcO-51" value="5. manage availability" style="rounded=1;whiteSpace=wrap;html=1;movable=1;resizable=1;rotatable=1;deletable=1;editable=1;locked=0;connectable=1;" vertex="1" parent="Cx75ewkhD1ACkf9_SAcO-150">
          <mxGeometry x="1034" y="1060" width="120" height="60" as="geometry" />
        </mxCell>
        <mxCell id="Cx75ewkhD1ACkf9_SAcO-53" style="edgeStyle=orthogonalEdgeStyle;rounded=0;orthogonalLoop=1;jettySize=auto;html=1;exitX=0.5;exitY=1;exitDx=0;exitDy=0;entryX=0.5;entryY=0;entryDx=0;entryDy=0;movable=1;resizable=1;rotatable=1;deletable=1;editable=1;locked=0;connectable=1;" edge="1" parent="Cx75ewkhD1ACkf9_SAcO-150" source="Cx75ewkhD1ACkf9_SAcO-43" target="Cx75ewkhD1ACkf9_SAcO-51">
          <mxGeometry relative="1" as="geometry" />
        </mxCell>
        <mxCell id="Cx75ewkhD1ACkf9_SAcO-52" value="8. report" style="rounded=1;whiteSpace=wrap;html=1;movable=1;resizable=1;rotatable=1;deletable=1;editable=1;locked=0;connectable=1;" vertex="1" parent="Cx75ewkhD1ACkf9_SAcO-150">
          <mxGeometry x="1490" y="1060" width="120" height="60" as="geometry" />
        </mxCell>
        <mxCell id="Cx75ewkhD1ACkf9_SAcO-60" style="edgeStyle=orthogonalEdgeStyle;rounded=0;orthogonalLoop=1;jettySize=auto;html=1;exitX=0.5;exitY=1;exitDx=0;exitDy=0;entryX=0.5;entryY=0;entryDx=0;entryDy=0;movable=1;resizable=1;rotatable=1;deletable=1;editable=1;locked=0;connectable=1;" edge="1" parent="Cx75ewkhD1ACkf9_SAcO-150" source="Cx75ewkhD1ACkf9_SAcO-43" target="Cx75ewkhD1ACkf9_SAcO-52">
          <mxGeometry relative="1" as="geometry" />
        </mxCell>
        <mxCell id="Cx75ewkhD1ACkf9_SAcO-63" value="display availability function is called form restaurant" style="rounded=1;whiteSpace=wrap;html=1;movable=1;resizable=1;rotatable=1;deletable=1;editable=1;locked=0;connectable=1;" vertex="1" parent="Cx75ewkhD1ACkf9_SAcO-150">
          <mxGeometry x="1035" y="1160" width="120" height="60" as="geometry" />
        </mxCell>
        <mxCell id="Cx75ewkhD1ACkf9_SAcO-72" style="edgeStyle=orthogonalEdgeStyle;rounded=0;orthogonalLoop=1;jettySize=auto;html=1;exitX=0.5;exitY=1;exitDx=0;exitDy=0;entryX=0.5;entryY=0;entryDx=0;entryDy=0;movable=1;resizable=1;rotatable=1;deletable=1;editable=1;locked=0;connectable=1;" edge="1" parent="Cx75ewkhD1ACkf9_SAcO-150" source="Cx75ewkhD1ACkf9_SAcO-51" target="Cx75ewkhD1ACkf9_SAcO-63">
          <mxGeometry relative="1" as="geometry" />
        </mxCell>
        <mxCell id="Cx75ewkhD1ACkf9_SAcO-107" style="edgeStyle=orthogonalEdgeStyle;rounded=0;orthogonalLoop=1;jettySize=auto;html=1;exitX=0.5;exitY=1;exitDx=0;exitDy=0;movable=1;resizable=1;rotatable=1;deletable=1;editable=1;locked=0;connectable=1;" edge="1" parent="Cx75ewkhD1ACkf9_SAcO-150" source="Cx75ewkhD1ACkf9_SAcO-64">
          <mxGeometry relative="1" as="geometry">
            <mxPoint x="400" y="1680" as="targetPoint" />
            <Array as="points">
              <mxPoint x="430" y="1680" />
            </Array>
          </mxGeometry>
        </mxCell>
        <mxCell id="Cx75ewkhD1ACkf9_SAcO-64" value="calls display staff function" style="rounded=1;whiteSpace=wrap;html=1;movable=1;resizable=1;rotatable=1;deletable=1;editable=1;locked=0;connectable=1;" vertex="1" parent="Cx75ewkhD1ACkf9_SAcO-150">
          <mxGeometry x="370" y="1160" width="120" height="60" as="geometry" />
        </mxCell>
        <mxCell id="Cx75ewkhD1ACkf9_SAcO-69" style="edgeStyle=orthogonalEdgeStyle;rounded=0;orthogonalLoop=1;jettySize=auto;html=1;exitX=0.5;exitY=1;exitDx=0;exitDy=0;entryX=0.5;entryY=0;entryDx=0;entryDy=0;movable=1;resizable=1;rotatable=1;deletable=1;editable=1;locked=0;connectable=1;" edge="1" parent="Cx75ewkhD1ACkf9_SAcO-150" source="Cx75ewkhD1ACkf9_SAcO-46" target="Cx75ewkhD1ACkf9_SAcO-64">
          <mxGeometry relative="1" as="geometry" />
        </mxCell>
        <mxCell id="Cx75ewkhD1ACkf9_SAcO-105" style="edgeStyle=orthogonalEdgeStyle;rounded=0;orthogonalLoop=1;jettySize=auto;html=1;exitX=0.5;exitY=1;exitDx=0;exitDy=0;movable=1;resizable=1;rotatable=1;deletable=1;editable=1;locked=0;connectable=1;" edge="1" parent="Cx75ewkhD1ACkf9_SAcO-150" source="Cx75ewkhD1ACkf9_SAcO-65">
          <mxGeometry relative="1" as="geometry">
            <mxPoint x="830" y="1680" as="targetPoint" />
            <Array as="points">
              <mxPoint x="870" y="1680" />
            </Array>
          </mxGeometry>
        </mxCell>
        <mxCell id="Cx75ewkhD1ACkf9_SAcO-65" value="calls displayFullMenu() from restaurant class" style="rounded=1;whiteSpace=wrap;html=1;movable=1;resizable=1;rotatable=1;deletable=1;editable=1;locked=0;connectable=1;" vertex="1" parent="Cx75ewkhD1ACkf9_SAcO-150">
          <mxGeometry x="810" y="1160" width="120" height="60" as="geometry" />
        </mxCell>
        <mxCell id="Cx75ewkhD1ACkf9_SAcO-71" style="edgeStyle=orthogonalEdgeStyle;rounded=0;orthogonalLoop=1;jettySize=auto;html=1;exitX=0.5;exitY=1;exitDx=0;exitDy=0;entryX=0.5;entryY=0;entryDx=0;entryDy=0;movable=1;resizable=1;rotatable=1;deletable=1;editable=1;locked=0;connectable=1;" edge="1" parent="Cx75ewkhD1ACkf9_SAcO-150" source="Cx75ewkhD1ACkf9_SAcO-48" target="Cx75ewkhD1ACkf9_SAcO-65">
          <mxGeometry relative="1" as="geometry" />
        </mxCell>
        <mxCell id="Cx75ewkhD1ACkf9_SAcO-66" value="calls addfoodData() from restaurant class" style="rounded=1;whiteSpace=wrap;html=1;movable=1;resizable=1;rotatable=1;deletable=1;editable=1;locked=0;connectable=1;" vertex="1" parent="Cx75ewkhD1ACkf9_SAcO-150">
          <mxGeometry x="590" y="1160" width="120" height="60" as="geometry" />
        </mxCell>
        <mxCell id="Cx75ewkhD1ACkf9_SAcO-70" style="edgeStyle=orthogonalEdgeStyle;rounded=0;orthogonalLoop=1;jettySize=auto;html=1;exitX=0.5;exitY=1;exitDx=0;exitDy=0;entryX=0.5;entryY=0;entryDx=0;entryDy=0;movable=1;resizable=1;rotatable=1;deletable=1;editable=1;locked=0;connectable=1;" edge="1" parent="Cx75ewkhD1ACkf9_SAcO-150" source="Cx75ewkhD1ACkf9_SAcO-47" target="Cx75ewkhD1ACkf9_SAcO-66">
          <mxGeometry relative="1" as="geometry" />
        </mxCell>
        <mxCell id="Cx75ewkhD1ACkf9_SAcO-67" value="calls add staff function from restaurant class" style="rounded=1;whiteSpace=wrap;html=1;movable=1;resizable=1;rotatable=1;deletable=1;editable=1;locked=0;connectable=1;" vertex="1" parent="Cx75ewkhD1ACkf9_SAcO-150">
          <mxGeometry x="147" y="1160" width="120" height="60" as="geometry" />
        </mxCell>
        <mxCell id="Cx75ewkhD1ACkf9_SAcO-76" style="edgeStyle=orthogonalEdgeStyle;rounded=0;orthogonalLoop=1;jettySize=auto;html=1;exitX=0.5;exitY=1;exitDx=0;exitDy=0;movable=1;resizable=1;rotatable=1;deletable=1;editable=1;locked=0;connectable=1;" edge="1" parent="Cx75ewkhD1ACkf9_SAcO-150" source="Cx75ewkhD1ACkf9_SAcO-73">
          <mxGeometry relative="1" as="geometry">
            <mxPoint x="1094" y="1410" as="targetPoint" />
          </mxGeometry>
        </mxCell>
        <mxCell id="Cx75ewkhD1ACkf9_SAcO-81" value="yes" style="edgeLabel;html=1;align=center;verticalAlign=middle;resizable=1;points=[];movable=1;rotatable=1;deletable=1;editable=1;locked=0;connectable=1;" connectable="0" vertex="1" parent="Cx75ewkhD1ACkf9_SAcO-76">
          <mxGeometry x="0.1512" y="1" relative="1" as="geometry">
            <mxPoint y="1" as="offset" />
          </mxGeometry>
        </mxCell>
        <mxCell id="Cx75ewkhD1ACkf9_SAcO-73" value="change availability?" style="rhombus;whiteSpace=wrap;html=1;movable=1;resizable=1;rotatable=1;deletable=1;editable=1;locked=0;connectable=1;" vertex="1" parent="Cx75ewkhD1ACkf9_SAcO-150">
          <mxGeometry x="1054" y="1280" width="80" height="80" as="geometry" />
        </mxCell>
        <mxCell id="Cx75ewkhD1ACkf9_SAcO-75" style="edgeStyle=orthogonalEdgeStyle;rounded=0;orthogonalLoop=1;jettySize=auto;html=1;exitX=0.5;exitY=1;exitDx=0;exitDy=0;entryX=0.5;entryY=0;entryDx=0;entryDy=0;movable=1;resizable=1;rotatable=1;deletable=1;editable=1;locked=0;connectable=1;" edge="1" parent="Cx75ewkhD1ACkf9_SAcO-150" source="Cx75ewkhD1ACkf9_SAcO-63" target="Cx75ewkhD1ACkf9_SAcO-73">
          <mxGeometry relative="1" as="geometry" />
        </mxCell>
        <mxCell id="Cx75ewkhD1ACkf9_SAcO-77" value="input item index" style="shape=parallelogram;perimeter=parallelogramPerimeter;whiteSpace=wrap;html=1;fixedSize=1;movable=1;resizable=1;rotatable=1;deletable=1;editable=1;locked=0;connectable=1;" vertex="1" parent="Cx75ewkhD1ACkf9_SAcO-150">
          <mxGeometry x="1030" y="1410" width="120" height="60" as="geometry" />
        </mxCell>
        <mxCell id="Cx75ewkhD1ACkf9_SAcO-104" style="edgeStyle=orthogonalEdgeStyle;rounded=0;orthogonalLoop=1;jettySize=auto;html=1;exitX=0.5;exitY=1;exitDx=0;exitDy=0;movable=1;resizable=1;rotatable=1;deletable=1;editable=1;locked=0;connectable=1;" edge="1" parent="Cx75ewkhD1ACkf9_SAcO-150" source="Cx75ewkhD1ACkf9_SAcO-78">
          <mxGeometry relative="1" as="geometry">
            <mxPoint x="1050" y="1680" as="targetPoint" />
            <Array as="points">
              <mxPoint x="1090" y="1680" />
            </Array>
          </mxGeometry>
        </mxCell>
        <mxCell id="Cx75ewkhD1ACkf9_SAcO-78" value="input new availabilitu" style="shape=parallelogram;perimeter=parallelogramPerimeter;whiteSpace=wrap;html=1;fixedSize=1;movable=1;resizable=1;rotatable=1;deletable=1;editable=1;locked=0;connectable=1;" vertex="1" parent="Cx75ewkhD1ACkf9_SAcO-150">
          <mxGeometry x="1030" y="1520" width="120" height="60" as="geometry" />
        </mxCell>
        <mxCell id="Cx75ewkhD1ACkf9_SAcO-80" style="edgeStyle=orthogonalEdgeStyle;rounded=0;orthogonalLoop=1;jettySize=auto;html=1;exitX=0.5;exitY=1;exitDx=0;exitDy=0;entryX=0.5;entryY=0;entryDx=0;entryDy=0;movable=1;resizable=1;rotatable=1;deletable=1;editable=1;locked=0;connectable=1;" edge="1" parent="Cx75ewkhD1ACkf9_SAcO-150" source="Cx75ewkhD1ACkf9_SAcO-77" target="Cx75ewkhD1ACkf9_SAcO-78">
          <mxGeometry relative="1" as="geometry" />
        </mxCell>
        <mxCell id="Cx75ewkhD1ACkf9_SAcO-83" value="display price function is called" style="rounded=1;whiteSpace=wrap;html=1;movable=1;resizable=1;rotatable=1;deletable=1;editable=1;locked=0;connectable=1;" vertex="1" parent="Cx75ewkhD1ACkf9_SAcO-150">
          <mxGeometry x="1260.0042857142857" y="1160" width="120" height="60" as="geometry" />
        </mxCell>
        <mxCell id="Cx75ewkhD1ACkf9_SAcO-82" style="edgeStyle=orthogonalEdgeStyle;rounded=0;orthogonalLoop=1;jettySize=auto;html=1;exitX=0.5;exitY=1;exitDx=0;exitDy=0;movable=1;resizable=1;rotatable=1;deletable=1;editable=1;locked=0;connectable=1;" edge="1" parent="Cx75ewkhD1ACkf9_SAcO-150" source="Cx75ewkhD1ACkf9_SAcO-50" target="Cx75ewkhD1ACkf9_SAcO-83">
          <mxGeometry relative="1" as="geometry">
            <mxPoint x="1319.7142857142858" y="1160" as="targetPoint" />
          </mxGeometry>
        </mxCell>
        <mxCell id="Cx75ewkhD1ACkf9_SAcO-85" value="input index" style="shape=parallelogram;perimeter=parallelogramPerimeter;whiteSpace=wrap;html=1;fixedSize=1;movable=1;resizable=1;rotatable=1;deletable=1;editable=1;locked=0;connectable=1;" vertex="1" parent="Cx75ewkhD1ACkf9_SAcO-150">
          <mxGeometry x="1260" y="1295" width="120" height="50" as="geometry" />
        </mxCell>
        <mxCell id="Cx75ewkhD1ACkf9_SAcO-88" style="edgeStyle=orthogonalEdgeStyle;rounded=0;orthogonalLoop=1;jettySize=auto;html=1;exitX=0.5;exitY=1;exitDx=0;exitDy=0;entryX=0.5;entryY=0;entryDx=0;entryDy=0;movable=1;resizable=1;rotatable=1;deletable=1;editable=1;locked=0;connectable=1;" edge="1" parent="Cx75ewkhD1ACkf9_SAcO-150" source="Cx75ewkhD1ACkf9_SAcO-83" target="Cx75ewkhD1ACkf9_SAcO-85">
          <mxGeometry relative="1" as="geometry" />
        </mxCell>
        <mxCell id="Cx75ewkhD1ACkf9_SAcO-103" style="edgeStyle=orthogonalEdgeStyle;rounded=0;orthogonalLoop=1;jettySize=auto;html=1;exitX=0.5;exitY=1;exitDx=0;exitDy=0;movable=1;resizable=1;rotatable=1;deletable=1;editable=1;locked=0;connectable=1;" edge="1" parent="Cx75ewkhD1ACkf9_SAcO-150" source="Cx75ewkhD1ACkf9_SAcO-90">
          <mxGeometry relative="1" as="geometry">
            <mxPoint x="1270" y="1680" as="targetPoint" />
            <Array as="points">
              <mxPoint x="1320" y="1573" />
              <mxPoint x="1321" y="1680" />
            </Array>
          </mxGeometry>
        </mxCell>
        <mxCell id="Cx75ewkhD1ACkf9_SAcO-102" style="edgeStyle=orthogonalEdgeStyle;rounded=0;orthogonalLoop=1;jettySize=auto;html=1;exitX=0.5;exitY=1;exitDx=0;exitDy=0;movable=1;resizable=1;rotatable=1;deletable=1;editable=1;locked=0;connectable=1;" edge="1" parent="Cx75ewkhD1ACkf9_SAcO-150">
          <mxGeometry relative="1" as="geometry">
            <mxPoint x="1520" y="1680" as="targetPoint" />
            <mxPoint x="1550" y="1220" as="sourcePoint" />
            <Array as="points">
              <mxPoint x="1550" y="1680" />
            </Array>
          </mxGeometry>
        </mxCell>
        <mxCell id="Cx75ewkhD1ACkf9_SAcO-101" style="edgeStyle=orthogonalEdgeStyle;rounded=0;orthogonalLoop=1;jettySize=auto;html=1;exitX=0.5;exitY=1;exitDx=0;exitDy=0;entryX=0;entryY=0.5;entryDx=0;entryDy=0;movable=1;resizable=1;rotatable=1;deletable=1;editable=1;locked=0;connectable=1;" edge="1" parent="Cx75ewkhD1ACkf9_SAcO-150" source="Cx75ewkhD1ACkf9_SAcO-93" target="Cx75ewkhD1ACkf9_SAcO-43">
          <mxGeometry relative="1" as="geometry">
            <mxPoint x="960" y="960" as="targetPoint" />
            <Array as="points">
              <mxPoint x="1550" y="1680" />
              <mxPoint y="1680" />
              <mxPoint y="910" />
            </Array>
          </mxGeometry>
        </mxCell>
        <mxCell id="Cx75ewkhD1ACkf9_SAcO-93" value="calls getReport() function" style="rounded=1;whiteSpace=wrap;html=1;movable=1;resizable=1;rotatable=1;deletable=1;editable=1;locked=0;connectable=1;" vertex="1" parent="Cx75ewkhD1ACkf9_SAcO-150">
          <mxGeometry x="1490" y="1160" width="120" height="60" as="geometry" />
        </mxCell>
        <mxCell id="Cx75ewkhD1ACkf9_SAcO-94" style="edgeStyle=orthogonalEdgeStyle;rounded=0;orthogonalLoop=1;jettySize=auto;html=1;exitX=0.5;exitY=1;exitDx=0;exitDy=0;entryX=0.5;entryY=0;entryDx=0;entryDy=0;movable=1;resizable=1;rotatable=1;deletable=1;editable=1;locked=0;connectable=1;" edge="1" parent="Cx75ewkhD1ACkf9_SAcO-150" source="Cx75ewkhD1ACkf9_SAcO-52" target="Cx75ewkhD1ACkf9_SAcO-93">
          <mxGeometry relative="1" as="geometry" />
        </mxCell>
        <mxCell id="Cx75ewkhD1ACkf9_SAcO-95" value="calls writeToFile-Food and WriteToFile_Staff" style="rounded=1;whiteSpace=wrap;html=1;movable=1;resizable=1;rotatable=1;deletable=1;editable=1;locked=0;connectable=1;" vertex="1" parent="Cx75ewkhD1ACkf9_SAcO-150">
          <mxGeometry x="1940" y="1160" width="120" height="60" as="geometry" />
        </mxCell>
        <mxCell id="Cx75ewkhD1ACkf9_SAcO-98" style="edgeStyle=orthogonalEdgeStyle;rounded=0;orthogonalLoop=1;jettySize=auto;html=1;exitX=0.5;exitY=1;exitDx=0;exitDy=0;entryX=0.5;entryY=0;entryDx=0;entryDy=0;movable=1;resizable=1;rotatable=1;deletable=1;editable=1;locked=0;connectable=1;" edge="1" parent="Cx75ewkhD1ACkf9_SAcO-150" source="Cx75ewkhD1ACkf9_SAcO-45" target="Cx75ewkhD1ACkf9_SAcO-95">
          <mxGeometry relative="1" as="geometry" />
        </mxCell>
        <mxCell id="Cx75ewkhD1ACkf9_SAcO-96" value="&lt;font style=&quot;font-size: 24px;&quot; color=&quot;#7f00ff&quot;&gt;end&lt;/font&gt;" style="ellipse;whiteSpace=wrap;html=1;movable=1;resizable=1;rotatable=1;deletable=1;editable=1;locked=0;connectable=1;strokeColor=#7F00FF;" vertex="1" parent="Cx75ewkhD1ACkf9_SAcO-150">
          <mxGeometry x="1285" y="390" width="130" height="70" as="geometry" />
        </mxCell>
        <mxCell id="Cx75ewkhD1ACkf9_SAcO-97" style="edgeStyle=orthogonalEdgeStyle;rounded=0;orthogonalLoop=1;jettySize=auto;html=1;exitX=0.5;exitY=1;exitDx=0;exitDy=0;entryX=0.5;entryY=0;entryDx=0;entryDy=0;movable=1;resizable=1;rotatable=1;deletable=1;editable=1;locked=0;connectable=1;" edge="1" parent="Cx75ewkhD1ACkf9_SAcO-150" source="Cx75ewkhD1ACkf9_SAcO-4" target="Cx75ewkhD1ACkf9_SAcO-96">
          <mxGeometry relative="1" as="geometry" />
        </mxCell>
        <mxCell id="Cx75ewkhD1ACkf9_SAcO-99" value="&lt;font color=&quot;#ff0000&quot;&gt;Main Menu&lt;/font&gt;" style="rounded=1;whiteSpace=wrap;html=1;movable=1;resizable=1;rotatable=1;deletable=1;editable=1;locked=0;connectable=1;" vertex="1" parent="Cx75ewkhD1ACkf9_SAcO-150">
          <mxGeometry x="1940" y="1260" width="120" height="60" as="geometry" />
        </mxCell>
        <mxCell id="Cx75ewkhD1ACkf9_SAcO-100" style="edgeStyle=orthogonalEdgeStyle;rounded=0;orthogonalLoop=1;jettySize=auto;html=1;exitX=0.5;exitY=1;exitDx=0;exitDy=0;entryX=0.5;entryY=0;entryDx=0;entryDy=0;movable=1;resizable=1;rotatable=1;deletable=1;editable=1;locked=0;connectable=1;" edge="1" parent="Cx75ewkhD1ACkf9_SAcO-150" source="Cx75ewkhD1ACkf9_SAcO-95" target="Cx75ewkhD1ACkf9_SAcO-99">
          <mxGeometry relative="1" as="geometry" />
        </mxCell>
        <mxCell id="Cx75ewkhD1ACkf9_SAcO-110" value="input staff info" style="shape=parallelogram;perimeter=parallelogramPerimeter;whiteSpace=wrap;html=1;fixedSize=1;movable=1;resizable=1;rotatable=1;deletable=1;editable=1;locked=0;connectable=1;" vertex="1" parent="Cx75ewkhD1ACkf9_SAcO-150">
          <mxGeometry x="147" y="1270" width="120" height="60" as="geometry" />
        </mxCell>
        <mxCell id="Cx75ewkhD1ACkf9_SAcO-111" style="edgeStyle=orthogonalEdgeStyle;rounded=0;orthogonalLoop=1;jettySize=auto;html=1;exitX=0.5;exitY=1;exitDx=0;exitDy=0;entryX=0.5;entryY=0;entryDx=0;entryDy=0;movable=1;resizable=1;rotatable=1;deletable=1;editable=1;locked=0;connectable=1;" edge="1" parent="Cx75ewkhD1ACkf9_SAcO-150" source="Cx75ewkhD1ACkf9_SAcO-67" target="Cx75ewkhD1ACkf9_SAcO-110">
          <mxGeometry relative="1" as="geometry" />
        </mxCell>
        <mxCell id="Cx75ewkhD1ACkf9_SAcO-112" value="&lt;font style=&quot;font-size: 11px;&quot;&gt;switch&lt;br&gt;(input the job role index)&lt;/font&gt;" style="rhombus;whiteSpace=wrap;html=1;movable=1;resizable=1;rotatable=1;deletable=1;editable=1;locked=0;connectable=1;" vertex="1" parent="Cx75ewkhD1ACkf9_SAcO-150">
          <mxGeometry x="167" y="1385" width="80" height="80" as="geometry" />
        </mxCell>
        <mxCell id="Cx75ewkhD1ACkf9_SAcO-114" style="edgeStyle=orthogonalEdgeStyle;rounded=0;orthogonalLoop=1;jettySize=auto;html=1;exitX=0.5;exitY=1;exitDx=0;exitDy=0;entryX=0.5;entryY=0;entryDx=0;entryDy=0;movable=1;resizable=1;rotatable=1;deletable=1;editable=1;locked=0;connectable=1;" edge="1" parent="Cx75ewkhD1ACkf9_SAcO-150" source="Cx75ewkhD1ACkf9_SAcO-110" target="Cx75ewkhD1ACkf9_SAcO-112">
          <mxGeometry relative="1" as="geometry" />
        </mxCell>
        <mxCell id="Cx75ewkhD1ACkf9_SAcO-140" style="edgeStyle=orthogonalEdgeStyle;rounded=0;orthogonalLoop=1;jettySize=auto;html=1;exitX=0.5;exitY=1;exitDx=0;exitDy=0;movable=1;resizable=1;rotatable=1;deletable=1;editable=1;locked=0;connectable=1;" edge="1" parent="Cx75ewkhD1ACkf9_SAcO-150" source="Cx75ewkhD1ACkf9_SAcO-119">
          <mxGeometry relative="1" as="geometry">
            <mxPoint x="190" y="1680" as="targetPoint" />
            <Array as="points">
              <mxPoint x="65" y="1610" />
              <mxPoint x="220" y="1610" />
              <mxPoint x="220" y="1680" />
            </Array>
          </mxGeometry>
        </mxCell>
        <mxCell id="Cx75ewkhD1ACkf9_SAcO-119" value="add to receptionist vector" style="rounded=1;whiteSpace=wrap;html=1;movable=1;resizable=1;rotatable=1;deletable=1;editable=1;locked=0;connectable=1;" vertex="1" parent="Cx75ewkhD1ACkf9_SAcO-150">
          <mxGeometry x="30" y="1500" width="70" height="40" as="geometry" />
        </mxCell>
        <mxCell id="Cx75ewkhD1ACkf9_SAcO-128" style="edgeStyle=orthogonalEdgeStyle;rounded=0;orthogonalLoop=1;jettySize=auto;html=1;exitX=0;exitY=0.5;exitDx=0;exitDy=0;entryX=0.5;entryY=0;entryDx=0;entryDy=0;movable=1;resizable=1;rotatable=1;deletable=1;editable=1;locked=0;connectable=1;" edge="1" parent="Cx75ewkhD1ACkf9_SAcO-150" source="Cx75ewkhD1ACkf9_SAcO-112" target="Cx75ewkhD1ACkf9_SAcO-119">
          <mxGeometry relative="1" as="geometry" />
        </mxCell>
        <mxCell id="Cx75ewkhD1ACkf9_SAcO-132" value="1" style="edgeLabel;html=1;align=center;verticalAlign=middle;resizable=1;points=[];movable=1;rotatable=1;deletable=1;editable=1;locked=0;connectable=1;" connectable="0" vertex="1" parent="Cx75ewkhD1ACkf9_SAcO-128">
          <mxGeometry x="-0.3043" y="3" relative="1" as="geometry">
            <mxPoint as="offset" />
          </mxGeometry>
        </mxCell>
        <mxCell id="Cx75ewkhD1ACkf9_SAcO-141" style="edgeStyle=orthogonalEdgeStyle;rounded=0;orthogonalLoop=1;jettySize=auto;html=1;exitX=0.5;exitY=1;exitDx=0;exitDy=0;movable=1;resizable=1;rotatable=1;deletable=1;editable=1;locked=0;connectable=1;" edge="1" parent="Cx75ewkhD1ACkf9_SAcO-150" source="Cx75ewkhD1ACkf9_SAcO-123">
          <mxGeometry relative="1" as="geometry">
            <mxPoint x="155" y="1610" as="targetPoint" />
          </mxGeometry>
        </mxCell>
        <mxCell id="Cx75ewkhD1ACkf9_SAcO-123" value="add ro delivery vector" style="rounded=1;whiteSpace=wrap;html=1;movable=1;resizable=1;rotatable=1;deletable=1;editable=1;locked=0;connectable=1;" vertex="1" parent="Cx75ewkhD1ACkf9_SAcO-150">
          <mxGeometry x="120" y="1500" width="70" height="40" as="geometry" />
        </mxCell>
        <mxCell id="Cx75ewkhD1ACkf9_SAcO-129" style="edgeStyle=orthogonalEdgeStyle;rounded=0;orthogonalLoop=1;jettySize=auto;html=1;exitX=0;exitY=1;exitDx=0;exitDy=0;entryX=0.5;entryY=0;entryDx=0;entryDy=0;movable=1;resizable=1;rotatable=1;deletable=1;editable=1;locked=0;connectable=1;" edge="1" parent="Cx75ewkhD1ACkf9_SAcO-150" source="Cx75ewkhD1ACkf9_SAcO-112" target="Cx75ewkhD1ACkf9_SAcO-123">
          <mxGeometry relative="1" as="geometry" />
        </mxCell>
        <mxCell id="Cx75ewkhD1ACkf9_SAcO-136" value="2" style="edgeLabel;html=1;align=center;verticalAlign=middle;resizable=1;points=[];movable=1;rotatable=1;deletable=1;editable=1;locked=0;connectable=1;" connectable="0" vertex="1" parent="Cx75ewkhD1ACkf9_SAcO-129">
          <mxGeometry x="0.2512" y="-6" relative="1" as="geometry">
            <mxPoint as="offset" />
          </mxGeometry>
        </mxCell>
        <mxCell id="Cx75ewkhD1ACkf9_SAcO-143" style="edgeStyle=orthogonalEdgeStyle;rounded=0;orthogonalLoop=1;jettySize=auto;html=1;exitX=0.5;exitY=1;exitDx=0;exitDy=0;movable=1;resizable=1;rotatable=1;deletable=1;editable=1;locked=0;connectable=1;" edge="1" parent="Cx75ewkhD1ACkf9_SAcO-150" source="Cx75ewkhD1ACkf9_SAcO-124">
          <mxGeometry relative="1" as="geometry">
            <mxPoint x="255.42857142857156" y="1610" as="targetPoint" />
          </mxGeometry>
        </mxCell>
        <mxCell id="Cx75ewkhD1ACkf9_SAcO-124" value="add to manager vector" style="rounded=1;whiteSpace=wrap;html=1;movable=1;resizable=1;rotatable=1;deletable=1;editable=1;locked=0;connectable=1;" vertex="1" parent="Cx75ewkhD1ACkf9_SAcO-150">
          <mxGeometry x="220" y="1500" width="70" height="40" as="geometry" />
        </mxCell>
        <mxCell id="Cx75ewkhD1ACkf9_SAcO-131" style="edgeStyle=orthogonalEdgeStyle;rounded=0;orthogonalLoop=1;jettySize=auto;html=1;exitX=1;exitY=1;exitDx=0;exitDy=0;entryX=0.5;entryY=0;entryDx=0;entryDy=0;movable=1;resizable=1;rotatable=1;deletable=1;editable=1;locked=0;connectable=1;" edge="1" parent="Cx75ewkhD1ACkf9_SAcO-150" source="Cx75ewkhD1ACkf9_SAcO-112" target="Cx75ewkhD1ACkf9_SAcO-124">
          <mxGeometry relative="1" as="geometry" />
        </mxCell>
        <mxCell id="Cx75ewkhD1ACkf9_SAcO-137" value="3" style="edgeLabel;html=1;align=center;verticalAlign=middle;resizable=1;points=[];movable=1;rotatable=1;deletable=1;editable=1;locked=0;connectable=1;" connectable="0" vertex="1" parent="Cx75ewkhD1ACkf9_SAcO-131">
          <mxGeometry x="0.3046" relative="1" as="geometry">
            <mxPoint as="offset" />
          </mxGeometry>
        </mxCell>
        <mxCell id="Cx75ewkhD1ACkf9_SAcO-142" style="edgeStyle=orthogonalEdgeStyle;rounded=0;orthogonalLoop=1;jettySize=auto;html=1;exitX=0.5;exitY=1;exitDx=0;exitDy=0;movable=1;resizable=1;rotatable=1;deletable=1;editable=1;locked=0;connectable=1;" edge="1" parent="Cx75ewkhD1ACkf9_SAcO-150" source="Cx75ewkhD1ACkf9_SAcO-125">
          <mxGeometry relative="1" as="geometry">
            <mxPoint x="180" y="1680" as="targetPoint" />
            <Array as="points">
              <mxPoint x="355" y="1610" />
              <mxPoint x="221" y="1610" />
              <mxPoint x="221" y="1680" />
            </Array>
          </mxGeometry>
        </mxCell>
        <mxCell id="Cx75ewkhD1ACkf9_SAcO-125" value="add to chef vector" style="rounded=1;whiteSpace=wrap;html=1;movable=1;resizable=1;rotatable=1;deletable=1;editable=1;locked=0;connectable=1;" vertex="1" parent="Cx75ewkhD1ACkf9_SAcO-150">
          <mxGeometry x="320" y="1500" width="70" height="40" as="geometry" />
        </mxCell>
        <mxCell id="Cx75ewkhD1ACkf9_SAcO-130" style="edgeStyle=orthogonalEdgeStyle;rounded=0;orthogonalLoop=1;jettySize=auto;html=1;exitX=1;exitY=0.5;exitDx=0;exitDy=0;entryX=0.5;entryY=0;entryDx=0;entryDy=0;movable=1;resizable=1;rotatable=1;deletable=1;editable=1;locked=0;connectable=1;" edge="1" parent="Cx75ewkhD1ACkf9_SAcO-150" source="Cx75ewkhD1ACkf9_SAcO-112" target="Cx75ewkhD1ACkf9_SAcO-125">
          <mxGeometry relative="1" as="geometry" />
        </mxCell>
        <mxCell id="Cx75ewkhD1ACkf9_SAcO-139" value="4" style="edgeLabel;html=1;align=center;verticalAlign=middle;resizable=1;points=[];movable=1;rotatable=1;deletable=1;editable=1;locked=0;connectable=1;" connectable="0" vertex="1" parent="Cx75ewkhD1ACkf9_SAcO-130">
          <mxGeometry x="-0.3927" y="3" relative="1" as="geometry">
            <mxPoint as="offset" />
          </mxGeometry>
        </mxCell>
        <mxCell id="Cx75ewkhD1ACkf9_SAcO-144" value="call add data function from food items" style="rounded=1;whiteSpace=wrap;html=1;movable=1;resizable=1;rotatable=1;deletable=1;editable=1;locked=0;connectable=1;" vertex="1" parent="Cx75ewkhD1ACkf9_SAcO-150">
          <mxGeometry x="590" y="1340" width="120" height="60" as="geometry" />
        </mxCell>
        <mxCell id="Cx75ewkhD1ACkf9_SAcO-106" style="edgeStyle=orthogonalEdgeStyle;rounded=0;orthogonalLoop=1;jettySize=auto;html=1;exitX=0.5;exitY=1;exitDx=0;exitDy=0;entryX=0.5;entryY=0;entryDx=0;entryDy=0;movable=1;resizable=1;rotatable=1;deletable=1;editable=1;locked=0;connectable=1;" edge="1" parent="Cx75ewkhD1ACkf9_SAcO-150" source="Cx75ewkhD1ACkf9_SAcO-66" target="Cx75ewkhD1ACkf9_SAcO-144">
          <mxGeometry relative="1" as="geometry">
            <mxPoint x="649.7142857142858" y="1680" as="targetPoint" />
          </mxGeometry>
        </mxCell>
        <mxCell id="Cx75ewkhD1ACkf9_SAcO-148" style="edgeStyle=orthogonalEdgeStyle;rounded=0;orthogonalLoop=1;jettySize=auto;html=1;exitX=0.5;exitY=1;exitDx=0;exitDy=0;movable=1;resizable=1;rotatable=1;deletable=1;editable=1;locked=0;connectable=1;" edge="1" parent="Cx75ewkhD1ACkf9_SAcO-150" source="Cx75ewkhD1ACkf9_SAcO-147">
          <mxGeometry relative="1" as="geometry">
            <mxPoint x="610" y="1680" as="targetPoint" />
            <Array as="points">
              <mxPoint x="650" y="1680" />
              <mxPoint x="610" y="1680" />
            </Array>
          </mxGeometry>
        </mxCell>
        <mxCell id="Cx75ewkhD1ACkf9_SAcO-147" value="&lt;font style=&quot;font-size: 12px;&quot;&gt;input food items data&lt;/font&gt;" style="shape=parallelogram;perimeter=parallelogramPerimeter;whiteSpace=wrap;html=1;fixedSize=1;movable=1;resizable=1;rotatable=1;deletable=1;editable=1;locked=0;connectable=1;" vertex="1" parent="Cx75ewkhD1ACkf9_SAcO-150">
          <mxGeometry x="580" y="1470" width="140" height="60" as="geometry" />
        </mxCell>
        <mxCell id="Cx75ewkhD1ACkf9_SAcO-146" style="edgeStyle=orthogonalEdgeStyle;rounded=0;orthogonalLoop=1;jettySize=auto;html=1;exitX=0.5;exitY=1;exitDx=0;exitDy=0;entryX=0.5;entryY=0;entryDx=0;entryDy=0;movable=1;resizable=1;rotatable=1;deletable=1;editable=1;locked=0;connectable=1;" edge="1" parent="Cx75ewkhD1ACkf9_SAcO-150" source="Cx75ewkhD1ACkf9_SAcO-144" target="Cx75ewkhD1ACkf9_SAcO-147">
          <mxGeometry relative="1" as="geometry">
            <mxPoint x="660" y="1470" as="targetPoint" />
          </mxGeometry>
        </mxCell>
        <mxCell id="G4fQwwRvvV099wJtnHwn-12" value="8. report" style="rounded=1;whiteSpace=wrap;html=1;movable=1;resizable=1;rotatable=1;deletable=1;editable=1;locked=0;connectable=1;" vertex="1" parent="Cx75ewkhD1ACkf9_SAcO-150">
          <mxGeometry x="1720" y="1060" width="120" height="60" as="geometry" />
        </mxCell>
        <mxCell id="G4fQwwRvvV099wJtnHwn-17" style="edgeStyle=orthogonalEdgeStyle;rounded=0;orthogonalLoop=1;jettySize=auto;html=1;exitX=0.5;exitY=1;exitDx=0;exitDy=0;entryX=0;entryY=0.5;entryDx=0;entryDy=0;" edge="1" parent="Cx75ewkhD1ACkf9_SAcO-150" source="G4fQwwRvvV099wJtnHwn-13" target="Cx75ewkhD1ACkf9_SAcO-43">
          <mxGeometry relative="1" as="geometry">
            <Array as="points">
              <mxPoint x="1780" y="1680" />
              <mxPoint y="1680" />
              <mxPoint y="910" />
            </Array>
          </mxGeometry>
        </mxCell>
        <mxCell id="G4fQwwRvvV099wJtnHwn-13" value="calls getReport() function" style="rounded=1;whiteSpace=wrap;html=1;movable=1;resizable=1;rotatable=1;deletable=1;editable=1;locked=0;connectable=1;" vertex="1" parent="Cx75ewkhD1ACkf9_SAcO-150">
          <mxGeometry x="1720" y="1160" width="120" height="60" as="geometry" />
        </mxCell>
        <mxCell id="G4fQwwRvvV099wJtnHwn-14" style="edgeStyle=orthogonalEdgeStyle;rounded=0;orthogonalLoop=1;jettySize=auto;html=1;exitX=0.5;exitY=1;exitDx=0;exitDy=0;entryX=0.5;entryY=0;entryDx=0;entryDy=0;movable=1;resizable=1;rotatable=1;deletable=1;editable=1;locked=0;connectable=1;" edge="1" parent="Cx75ewkhD1ACkf9_SAcO-150" source="G4fQwwRvvV099wJtnHwn-12" target="G4fQwwRvvV099wJtnHwn-13">
          <mxGeometry relative="1" as="geometry" />
        </mxCell>
        <mxCell id="Cx75ewkhD1ACkf9_SAcO-89" style="edgeStyle=orthogonalEdgeStyle;rounded=0;orthogonalLoop=1;jettySize=auto;html=1;exitX=0.5;exitY=1;exitDx=0;exitDy=0;entryX=0.5;entryY=0;entryDx=0;entryDy=0;movable=1;resizable=1;rotatable=1;deletable=1;editable=1;locked=0;connectable=1;" edge="1" parent="Cx75ewkhD1ACkf9_SAcO-215" source="Cx75ewkhD1ACkf9_SAcO-85" target="Cx75ewkhD1ACkf9_SAcO-90">
          <mxGeometry relative="1" as="geometry">
            <mxPoint x="1999.7142857142858" y="1490" as="targetPoint" />
          </mxGeometry>
        </mxCell>
        <mxCell id="Cx75ewkhD1ACkf9_SAcO-151" value="&lt;font color=&quot;#0000ff&quot;&gt;Customer Menu&lt;/font&gt;" style="rounded=1;whiteSpace=wrap;html=1;movable=1;resizable=1;rotatable=1;deletable=1;editable=1;locked=0;connectable=1;strokeColor=#0000FF;" vertex="1" parent="Cx75ewkhD1ACkf9_SAcO-215">
          <mxGeometry x="1090" y="1960" width="120" height="60" as="geometry" />
        </mxCell>
        <mxCell id="Cx75ewkhD1ACkf9_SAcO-154" value="New customer" style="rounded=1;whiteSpace=wrap;html=1;movable=1;resizable=1;rotatable=1;deletable=1;editable=1;locked=0;connectable=1;" vertex="1" parent="Cx75ewkhD1ACkf9_SAcO-215">
          <mxGeometry x="850" y="2120" width="120" height="60" as="geometry" />
        </mxCell>
        <mxCell id="Cx75ewkhD1ACkf9_SAcO-153" style="edgeStyle=orthogonalEdgeStyle;rounded=0;orthogonalLoop=1;jettySize=auto;html=1;exitX=0.5;exitY=1;exitDx=0;exitDy=0;exitPerimeter=0;movable=1;resizable=1;rotatable=1;deletable=1;editable=1;locked=0;connectable=1;" edge="1" parent="Cx75ewkhD1ACkf9_SAcO-215" source="Cx75ewkhD1ACkf9_SAcO-151" target="Cx75ewkhD1ACkf9_SAcO-154">
          <mxGeometry relative="1" as="geometry">
            <mxPoint x="1140" y="2070" as="targetPoint" />
            <mxPoint x="1090" y="1990" as="sourcePoint" />
          </mxGeometry>
        </mxCell>
        <mxCell id="Cx75ewkhD1ACkf9_SAcO-156" value="existing customer&amp;nbsp;" style="rounded=1;whiteSpace=wrap;html=1;movable=1;resizable=1;rotatable=1;deletable=1;editable=1;locked=0;connectable=1;" vertex="1" parent="Cx75ewkhD1ACkf9_SAcO-215">
          <mxGeometry x="1320" y="2110" width="120" height="60" as="geometry" />
        </mxCell>
        <mxCell id="Cx75ewkhD1ACkf9_SAcO-155" style="edgeStyle=orthogonalEdgeStyle;rounded=0;orthogonalLoop=1;jettySize=auto;html=1;movable=1;resizable=1;rotatable=1;deletable=1;editable=1;locked=0;connectable=1;" edge="1" parent="Cx75ewkhD1ACkf9_SAcO-215" source="Cx75ewkhD1ACkf9_SAcO-151" target="Cx75ewkhD1ACkf9_SAcO-156">
          <mxGeometry relative="1" as="geometry">
            <mxPoint x="1410" y="2110" as="targetPoint" />
            <Array as="points">
              <mxPoint x="1150" y="2070" />
              <mxPoint x="1380" y="2070" />
            </Array>
          </mxGeometry>
        </mxCell>
        <mxCell id="Cx75ewkhD1ACkf9_SAcO-159" value="calls addCustomerData()" style="rounded=1;whiteSpace=wrap;html=1;movable=1;resizable=1;rotatable=1;deletable=1;editable=1;locked=0;connectable=1;" vertex="1" parent="Cx75ewkhD1ACkf9_SAcO-215">
          <mxGeometry x="850" y="2210" width="120" height="50" as="geometry" />
        </mxCell>
        <mxCell id="Cx75ewkhD1ACkf9_SAcO-158" style="edgeStyle=orthogonalEdgeStyle;rounded=0;orthogonalLoop=1;jettySize=auto;html=1;exitX=0.5;exitY=1;exitDx=0;exitDy=0;movable=1;resizable=1;rotatable=1;deletable=1;editable=1;locked=0;connectable=1;" edge="1" parent="Cx75ewkhD1ACkf9_SAcO-215" source="Cx75ewkhD1ACkf9_SAcO-154" target="Cx75ewkhD1ACkf9_SAcO-159">
          <mxGeometry relative="1" as="geometry">
            <mxPoint x="909.6470588235293" y="2220" as="targetPoint" />
          </mxGeometry>
        </mxCell>
        <mxCell id="Cx75ewkhD1ACkf9_SAcO-163" value="Input data" style="shape=parallelogram;perimeter=parallelogramPerimeter;whiteSpace=wrap;html=1;fixedSize=1;movable=1;resizable=1;rotatable=1;deletable=1;editable=1;locked=0;connectable=1;" vertex="1" parent="Cx75ewkhD1ACkf9_SAcO-215">
          <mxGeometry x="850" y="2290" width="120" height="50" as="geometry" />
        </mxCell>
        <mxCell id="Cx75ewkhD1ACkf9_SAcO-161" style="edgeStyle=orthogonalEdgeStyle;rounded=0;orthogonalLoop=1;jettySize=auto;html=1;entryX=0.5;entryY=0.167;entryDx=0;entryDy=0;entryPerimeter=0;movable=1;resizable=1;rotatable=1;deletable=1;editable=1;locked=0;connectable=1;" edge="1" parent="Cx75ewkhD1ACkf9_SAcO-215" source="Cx75ewkhD1ACkf9_SAcO-159" target="Cx75ewkhD1ACkf9_SAcO-163">
          <mxGeometry relative="1" as="geometry">
            <mxPoint x="910" y="2300" as="targetPoint" />
          </mxGeometry>
        </mxCell>
        <mxCell id="Cx75ewkhD1ACkf9_SAcO-165" value="WriteToFile function saves the info" style="rounded=1;whiteSpace=wrap;html=1;movable=1;resizable=1;rotatable=1;deletable=1;editable=1;locked=0;connectable=1;" vertex="1" parent="Cx75ewkhD1ACkf9_SAcO-215">
          <mxGeometry x="850" y="2380" width="120" height="50" as="geometry" />
        </mxCell>
        <mxCell id="Cx75ewkhD1ACkf9_SAcO-164" style="edgeStyle=orthogonalEdgeStyle;rounded=0;orthogonalLoop=1;jettySize=auto;html=1;movable=1;resizable=1;rotatable=1;deletable=1;editable=1;locked=0;connectable=1;" edge="1" parent="Cx75ewkhD1ACkf9_SAcO-215" source="Cx75ewkhD1ACkf9_SAcO-163" target="Cx75ewkhD1ACkf9_SAcO-165">
          <mxGeometry relative="1" as="geometry">
            <mxPoint x="910" y="2380" as="targetPoint" />
          </mxGeometry>
        </mxCell>
        <mxCell id="Cx75ewkhD1ACkf9_SAcO-166" style="edgeStyle=orthogonalEdgeStyle;rounded=0;orthogonalLoop=1;jettySize=auto;html=1;exitX=0.5;exitY=1;exitDx=0;exitDy=0;movable=1;resizable=1;rotatable=1;deletable=1;editable=1;locked=0;connectable=1;" edge="1" parent="Cx75ewkhD1ACkf9_SAcO-215" source="Cx75ewkhD1ACkf9_SAcO-165" target="Cx75ewkhD1ACkf9_SAcO-165">
          <mxGeometry relative="1" as="geometry" />
        </mxCell>
        <mxCell id="Cx75ewkhD1ACkf9_SAcO-168" value="&lt;font color=&quot;#00ff80&quot;&gt;place order function is called in main menu&lt;/font&gt;" style="rounded=1;whiteSpace=wrap;html=1;strokeColor=#00FF80;movable=1;resizable=1;rotatable=1;deletable=1;editable=1;locked=0;connectable=1;" vertex="1" parent="Cx75ewkhD1ACkf9_SAcO-215">
          <mxGeometry x="1090" y="2580" width="120" height="50" as="geometry" />
        </mxCell>
        <mxCell id="Cx75ewkhD1ACkf9_SAcO-175" style="edgeStyle=orthogonalEdgeStyle;rounded=0;orthogonalLoop=1;jettySize=auto;html=1;exitX=0.5;exitY=1;exitDx=0;exitDy=0;entryX=0.5;entryY=0;entryDx=0;entryDy=0;movable=1;resizable=1;rotatable=1;deletable=1;editable=1;locked=0;connectable=1;" edge="1" parent="Cx75ewkhD1ACkf9_SAcO-215" source="Cx75ewkhD1ACkf9_SAcO-171" target="Cx75ewkhD1ACkf9_SAcO-168">
          <mxGeometry relative="1" as="geometry" />
        </mxCell>
        <mxCell id="Cx75ewkhD1ACkf9_SAcO-171" value="&lt;font color=&quot;#ff0000&quot;&gt;Main Menu&lt;/font&gt;" style="rounded=1;whiteSpace=wrap;html=1;movable=1;resizable=1;rotatable=1;deletable=1;editable=1;locked=0;connectable=1;strokeColor=#FF0000;" vertex="1" parent="Cx75ewkhD1ACkf9_SAcO-215">
          <mxGeometry x="1090" y="2470" width="120" height="60" as="geometry" />
        </mxCell>
        <mxCell id="Cx75ewkhD1ACkf9_SAcO-176" style="edgeStyle=orthogonalEdgeStyle;rounded=0;orthogonalLoop=1;jettySize=auto;html=1;exitX=0.5;exitY=1;exitDx=0;exitDy=0;entryX=0.5;entryY=0;entryDx=0;entryDy=0;movable=1;resizable=1;rotatable=1;deletable=1;editable=1;locked=0;connectable=1;" edge="1" parent="Cx75ewkhD1ACkf9_SAcO-215" source="Cx75ewkhD1ACkf9_SAcO-156" target="Cx75ewkhD1ACkf9_SAcO-171">
          <mxGeometry relative="1" as="geometry">
            <Array as="points">
              <mxPoint x="1380" y="2450" />
              <mxPoint x="1150" y="2450" />
            </Array>
          </mxGeometry>
        </mxCell>
        <mxCell id="Cx75ewkhD1ACkf9_SAcO-174" style="edgeStyle=orthogonalEdgeStyle;rounded=0;orthogonalLoop=1;jettySize=auto;html=1;exitX=0.5;exitY=1;exitDx=0;exitDy=0;entryX=0.5;entryY=0;entryDx=0;entryDy=0;movable=1;resizable=1;rotatable=1;deletable=1;editable=1;locked=0;connectable=1;" edge="1" parent="Cx75ewkhD1ACkf9_SAcO-215" source="Cx75ewkhD1ACkf9_SAcO-165" target="Cx75ewkhD1ACkf9_SAcO-171">
          <mxGeometry relative="1" as="geometry" />
        </mxCell>
        <mxCell id="Cx75ewkhD1ACkf9_SAcO-182" value="Load food menu" style="rounded=1;whiteSpace=wrap;html=1;movable=1;resizable=1;rotatable=1;deletable=1;editable=1;locked=0;connectable=1;" vertex="1" parent="Cx75ewkhD1ACkf9_SAcO-215">
          <mxGeometry x="1090" y="2660" width="120" height="40" as="geometry" />
        </mxCell>
        <mxCell id="Cx75ewkhD1ACkf9_SAcO-183" style="edgeStyle=orthogonalEdgeStyle;rounded=0;orthogonalLoop=1;jettySize=auto;html=1;exitX=0.5;exitY=1;exitDx=0;exitDy=0;entryX=0.5;entryY=0;entryDx=0;entryDy=0;movable=1;resizable=1;rotatable=1;deletable=1;editable=1;locked=0;connectable=1;" edge="1" parent="Cx75ewkhD1ACkf9_SAcO-215" source="Cx75ewkhD1ACkf9_SAcO-168" target="Cx75ewkhD1ACkf9_SAcO-182">
          <mxGeometry relative="1" as="geometry" />
        </mxCell>
        <mxCell id="Cx75ewkhD1ACkf9_SAcO-187" value="input customerID" style="shape=parallelogram;perimeter=parallelogramPerimeter;whiteSpace=wrap;html=1;fixedSize=1;movable=1;resizable=1;rotatable=1;deletable=1;editable=1;locked=0;connectable=1;" vertex="1" parent="Cx75ewkhD1ACkf9_SAcO-215">
          <mxGeometry x="1090" y="2730" width="120" height="40" as="geometry" />
        </mxCell>
        <mxCell id="Cx75ewkhD1ACkf9_SAcO-188" style="edgeStyle=orthogonalEdgeStyle;rounded=0;orthogonalLoop=1;jettySize=auto;html=1;exitX=0.5;exitY=1;exitDx=0;exitDy=0;entryX=0.5;entryY=0;entryDx=0;entryDy=0;movable=1;resizable=1;rotatable=1;deletable=1;editable=1;locked=0;connectable=1;" edge="1" parent="Cx75ewkhD1ACkf9_SAcO-215" source="Cx75ewkhD1ACkf9_SAcO-182" target="Cx75ewkhD1ACkf9_SAcO-187">
          <mxGeometry relative="1" as="geometry" />
        </mxCell>
        <mxCell id="Cx75ewkhD1ACkf9_SAcO-189" value="valid input?" style="rhombus;whiteSpace=wrap;html=1;movable=1;resizable=1;rotatable=1;deletable=1;editable=1;locked=0;connectable=1;" vertex="1" parent="Cx75ewkhD1ACkf9_SAcO-215">
          <mxGeometry x="1110" y="2800" width="80" height="80" as="geometry" />
        </mxCell>
        <mxCell id="Cx75ewkhD1ACkf9_SAcO-190" style="edgeStyle=orthogonalEdgeStyle;rounded=0;orthogonalLoop=1;jettySize=auto;html=1;exitX=0.5;exitY=1;exitDx=0;exitDy=0;entryX=0.5;entryY=0;entryDx=0;entryDy=0;movable=1;resizable=1;rotatable=1;deletable=1;editable=1;locked=0;connectable=1;" edge="1" parent="Cx75ewkhD1ACkf9_SAcO-215" source="Cx75ewkhD1ACkf9_SAcO-187" target="Cx75ewkhD1ACkf9_SAcO-189">
          <mxGeometry relative="1" as="geometry" />
        </mxCell>
        <mxCell id="Cx75ewkhD1ACkf9_SAcO-191" value="display fullMenu" style="rounded=1;whiteSpace=wrap;html=1;movable=1;resizable=1;rotatable=1;deletable=1;editable=1;locked=0;connectable=1;" vertex="1" parent="Cx75ewkhD1ACkf9_SAcO-215">
          <mxGeometry x="1090" y="2920" width="120" height="40" as="geometry" />
        </mxCell>
        <mxCell id="Cx75ewkhD1ACkf9_SAcO-192" style="edgeStyle=orthogonalEdgeStyle;rounded=0;orthogonalLoop=1;jettySize=auto;html=1;exitX=0.5;exitY=1;exitDx=0;exitDy=0;movable=1;resizable=1;rotatable=1;deletable=1;editable=1;locked=0;connectable=1;" edge="1" parent="Cx75ewkhD1ACkf9_SAcO-215" source="Cx75ewkhD1ACkf9_SAcO-189" target="Cx75ewkhD1ACkf9_SAcO-191">
          <mxGeometry relative="1" as="geometry" />
        </mxCell>
        <mxCell id="Cx75ewkhD1ACkf9_SAcO-193" value="yes" style="edgeLabel;html=1;align=center;verticalAlign=middle;resizable=1;points=[];movable=1;rotatable=1;deletable=1;editable=1;locked=0;connectable=1;" connectable="0" vertex="1" parent="Cx75ewkhD1ACkf9_SAcO-192">
          <mxGeometry x="-0.5444" y="-5" relative="1" as="geometry">
            <mxPoint as="offset" />
          </mxGeometry>
        </mxCell>
        <mxCell id="Cx75ewkhD1ACkf9_SAcO-194" value="&lt;font style=&quot;font-size: 10px;&quot;&gt;input item index, and quantity&lt;/font&gt;" style="shape=parallelogram;perimeter=parallelogramPerimeter;whiteSpace=wrap;html=1;fixedSize=1;movable=1;resizable=1;rotatable=1;deletable=1;editable=1;locked=0;connectable=1;" vertex="1" parent="Cx75ewkhD1ACkf9_SAcO-215">
          <mxGeometry x="1080" y="3002.5" width="130" height="47.5" as="geometry" />
        </mxCell>
        <mxCell id="Cx75ewkhD1ACkf9_SAcO-196" style="edgeStyle=orthogonalEdgeStyle;rounded=0;orthogonalLoop=1;jettySize=auto;html=1;exitX=0.5;exitY=1;exitDx=0;exitDy=0;entryX=0.546;entryY=0.058;entryDx=0;entryDy=0;entryPerimeter=0;movable=1;resizable=1;rotatable=1;deletable=1;editable=1;locked=0;connectable=1;" edge="1" parent="Cx75ewkhD1ACkf9_SAcO-215" source="Cx75ewkhD1ACkf9_SAcO-191" target="Cx75ewkhD1ACkf9_SAcO-194">
          <mxGeometry relative="1" as="geometry">
            <mxPoint x="1156" y="3008" as="targetPoint" />
          </mxGeometry>
        </mxCell>
        <mxCell id="Cx75ewkhD1ACkf9_SAcO-200" style="edgeStyle=orthogonalEdgeStyle;rounded=0;orthogonalLoop=1;jettySize=auto;html=1;exitX=0.55;exitY=1.006;exitDx=0;exitDy=0;exitPerimeter=0;movable=1;resizable=1;rotatable=1;deletable=1;editable=1;locked=0;connectable=1;" edge="1" parent="Cx75ewkhD1ACkf9_SAcO-215" source="Cx75ewkhD1ACkf9_SAcO-194" target="Cx75ewkhD1ACkf9_SAcO-201">
          <mxGeometry relative="1" as="geometry">
            <mxPoint x="1140.166666666667" y="3160" as="targetPoint" />
          </mxGeometry>
        </mxCell>
        <mxCell id="Cx75ewkhD1ACkf9_SAcO-197" value="update availability of items after order" style="rounded=1;whiteSpace=wrap;html=1;movable=1;resizable=1;rotatable=1;deletable=1;editable=1;locked=0;connectable=1;" vertex="1" parent="Cx75ewkhD1ACkf9_SAcO-215">
          <mxGeometry x="880" y="3006.25" width="120" height="40" as="geometry" />
        </mxCell>
        <mxCell id="Cx75ewkhD1ACkf9_SAcO-199" style="edgeStyle=orthogonalEdgeStyle;rounded=0;orthogonalLoop=1;jettySize=auto;html=1;exitX=0;exitY=0.5;exitDx=0;exitDy=0;entryX=1;entryY=0.5;entryDx=0;entryDy=0;movable=1;resizable=1;rotatable=1;deletable=1;editable=1;locked=0;connectable=1;" edge="1" parent="Cx75ewkhD1ACkf9_SAcO-215" source="Cx75ewkhD1ACkf9_SAcO-194" target="Cx75ewkhD1ACkf9_SAcO-197">
          <mxGeometry relative="1" as="geometry" />
        </mxCell>
        <mxCell id="Cx75ewkhD1ACkf9_SAcO-201" value="&lt;font style=&quot;font-size: 10px;&quot;&gt;add them to orders vector for the specified customer&lt;/font&gt;" style="rounded=1;whiteSpace=wrap;html=1;movable=1;resizable=1;rotatable=1;deletable=1;editable=1;locked=0;connectable=1;" vertex="1" parent="Cx75ewkhD1ACkf9_SAcO-215">
          <mxGeometry x="1090" y="3090" width="120" height="40" as="geometry" />
        </mxCell>
        <mxCell id="Cx75ewkhD1ACkf9_SAcO-204" style="edgeStyle=orthogonalEdgeStyle;rounded=0;orthogonalLoop=1;jettySize=auto;html=1;exitX=0;exitY=0.5;exitDx=0;exitDy=0;entryX=0;entryY=0.5;entryDx=0;entryDy=0;movable=1;resizable=1;rotatable=1;deletable=1;editable=1;locked=0;connectable=1;" edge="1" parent="Cx75ewkhD1ACkf9_SAcO-215" source="Cx75ewkhD1ACkf9_SAcO-203" target="Cx75ewkhD1ACkf9_SAcO-191">
          <mxGeometry relative="1" as="geometry">
            <mxPoint x="759.9999999999998" y="2830" as="targetPoint" />
            <Array as="points">
              <mxPoint x="810" y="3200" />
              <mxPoint x="810" y="2940" />
            </Array>
          </mxGeometry>
        </mxCell>
        <mxCell id="Cx75ewkhD1ACkf9_SAcO-205" value="loop continues" style="edgeLabel;html=1;align=center;verticalAlign=middle;resizable=1;points=[];movable=1;rotatable=1;deletable=1;editable=1;locked=0;connectable=1;" connectable="0" vertex="1" parent="Cx75ewkhD1ACkf9_SAcO-204">
          <mxGeometry x="0.0734" y="2" relative="1" as="geometry">
            <mxPoint as="offset" />
          </mxGeometry>
        </mxCell>
        <mxCell id="Cx75ewkhD1ACkf9_SAcO-206" value="yes" style="edgeLabel;html=1;align=center;verticalAlign=middle;resizable=1;points=[];movable=1;rotatable=1;deletable=1;editable=1;locked=0;connectable=1;" connectable="0" vertex="1" parent="Cx75ewkhD1ACkf9_SAcO-204">
          <mxGeometry x="-0.9468" y="2" relative="1" as="geometry">
            <mxPoint as="offset" />
          </mxGeometry>
        </mxCell>
        <mxCell id="Cx75ewkhD1ACkf9_SAcO-203" value="order more?" style="rhombus;whiteSpace=wrap;html=1;movable=1;resizable=1;rotatable=1;deletable=1;editable=1;locked=0;connectable=1;" vertex="1" parent="Cx75ewkhD1ACkf9_SAcO-215">
          <mxGeometry x="1109.996666666667" y="3160" width="80" height="80" as="geometry" />
        </mxCell>
        <mxCell id="Cx75ewkhD1ACkf9_SAcO-202" style="edgeStyle=orthogonalEdgeStyle;rounded=0;orthogonalLoop=1;jettySize=auto;html=1;exitX=0.5;exitY=1;exitDx=0;exitDy=0;movable=1;resizable=1;rotatable=1;deletable=1;editable=1;locked=0;connectable=1;" edge="1" parent="Cx75ewkhD1ACkf9_SAcO-215" source="Cx75ewkhD1ACkf9_SAcO-201" target="Cx75ewkhD1ACkf9_SAcO-203">
          <mxGeometry relative="1" as="geometry">
            <mxPoint x="1150.166666666667" y="3160" as="targetPoint" />
          </mxGeometry>
        </mxCell>
        <mxCell id="Cx75ewkhD1ACkf9_SAcO-209" value="write to customer file and food file" style="rounded=1;whiteSpace=wrap;html=1;movable=1;resizable=1;rotatable=1;deletable=1;editable=1;locked=0;connectable=1;" vertex="1" parent="Cx75ewkhD1ACkf9_SAcO-215">
          <mxGeometry x="1507" y="3006.25" width="120" height="60" as="geometry" />
        </mxCell>
        <mxCell id="Cx75ewkhD1ACkf9_SAcO-208" style="edgeStyle=orthogonalEdgeStyle;rounded=0;orthogonalLoop=1;jettySize=auto;html=1;exitX=1;exitY=0.5;exitDx=0;exitDy=0;movable=1;resizable=1;rotatable=1;deletable=1;editable=1;locked=0;connectable=1;" edge="1" parent="Cx75ewkhD1ACkf9_SAcO-215" source="Cx75ewkhD1ACkf9_SAcO-189" target="Cx75ewkhD1ACkf9_SAcO-209">
          <mxGeometry relative="1" as="geometry">
            <mxPoint x="1400" y="2920" as="targetPoint" />
            <Array as="points">
              <mxPoint x="1350" y="2840" />
              <mxPoint x="1350" y="3036" />
            </Array>
          </mxGeometry>
        </mxCell>
        <mxCell id="Cx75ewkhD1ACkf9_SAcO-210" value="no" style="edgeLabel;html=1;align=center;verticalAlign=middle;resizable=1;points=[];movable=1;rotatable=1;deletable=1;editable=1;locked=0;connectable=1;" connectable="0" vertex="1" parent="Cx75ewkhD1ACkf9_SAcO-208">
          <mxGeometry x="-0.8506" y="-1" relative="1" as="geometry">
            <mxPoint as="offset" />
          </mxGeometry>
        </mxCell>
        <mxCell id="Cx75ewkhD1ACkf9_SAcO-207" style="edgeStyle=orthogonalEdgeStyle;rounded=0;orthogonalLoop=1;jettySize=auto;html=1;exitX=1;exitY=0.5;exitDx=0;exitDy=0;entryX=0;entryY=0.5;entryDx=0;entryDy=0;movable=1;resizable=1;rotatable=1;deletable=1;editable=1;locked=0;connectable=1;" edge="1" parent="Cx75ewkhD1ACkf9_SAcO-215" source="Cx75ewkhD1ACkf9_SAcO-203" target="Cx75ewkhD1ACkf9_SAcO-209">
          <mxGeometry relative="1" as="geometry">
            <mxPoint x="1400" y="2960" as="targetPoint" />
          </mxGeometry>
        </mxCell>
        <mxCell id="Cx75ewkhD1ACkf9_SAcO-211" value="no" style="edgeLabel;html=1;align=center;verticalAlign=middle;resizable=1;points=[];movable=1;rotatable=1;deletable=1;editable=1;locked=0;connectable=1;" connectable="0" vertex="1" parent="Cx75ewkhD1ACkf9_SAcO-207">
          <mxGeometry x="-0.888" y="-1" relative="1" as="geometry">
            <mxPoint as="offset" />
          </mxGeometry>
        </mxCell>
        <mxCell id="Cx75ewkhD1ACkf9_SAcO-213" value="&lt;font color=&quot;#7f00ff&quot; style=&quot;font-size: 24px;&quot;&gt;end&lt;/font&gt;" style="ellipse;whiteSpace=wrap;html=1;strokeColor=#7F00FF;movable=1;resizable=1;rotatable=1;deletable=1;editable=1;locked=0;connectable=1;" vertex="1" parent="Cx75ewkhD1ACkf9_SAcO-215">
          <mxGeometry x="1780" y="2996.246666666667" width="120" height="80" as="geometry" />
        </mxCell>
        <mxCell id="Cx75ewkhD1ACkf9_SAcO-212" style="edgeStyle=orthogonalEdgeStyle;rounded=0;orthogonalLoop=1;jettySize=auto;html=1;exitX=1;exitY=0.5;exitDx=0;exitDy=0;movable=1;resizable=1;rotatable=1;deletable=1;editable=1;locked=0;connectable=1;" edge="1" parent="Cx75ewkhD1ACkf9_SAcO-215" source="Cx75ewkhD1ACkf9_SAcO-209" target="Cx75ewkhD1ACkf9_SAcO-213">
          <mxGeometry relative="1" as="geometry">
            <mxPoint x="1740" y="3035.666666666667" as="targetPoint" />
          </mxGeometry>
        </mxCell>
        <mxCell id="Cx75ewkhD1ACkf9_SAcO-214" value="back to main menu" style="edgeLabel;html=1;align=center;verticalAlign=middle;resizable=1;points=[];movable=1;rotatable=1;deletable=1;editable=1;locked=0;connectable=1;" connectable="0" vertex="1" parent="Cx75ewkhD1ACkf9_SAcO-212">
          <mxGeometry x="-0.3949" y="-3" relative="1" as="geometry">
            <mxPoint x="26" y="-3" as="offset" />
          </mxGeometry>
        </mxCell>
        <mxCell id="Cx75ewkhD1ACkf9_SAcO-275" style="edgeStyle=orthogonalEdgeStyle;rounded=0;orthogonalLoop=1;jettySize=auto;html=1;exitX=0.5;exitY=1;exitDx=0;exitDy=0;entryX=0.5;entryY=0;entryDx=0;entryDy=0;fontFamily=Helvetica;fontSize=12;fontColor=default;movable=1;resizable=1;rotatable=1;deletable=1;editable=1;locked=0;connectable=1;" edge="1" parent="1" source="Cx75ewkhD1ACkf9_SAcO-220" target="Cx75ewkhD1ACkf9_SAcO-228">
          <mxGeometry relative="1" as="geometry" />
        </mxCell>
        <mxCell id="Cx75ewkhD1ACkf9_SAcO-276" style="edgeStyle=orthogonalEdgeStyle;rounded=0;orthogonalLoop=1;jettySize=auto;html=1;exitX=0.5;exitY=1;exitDx=0;exitDy=0;entryX=0.5;entryY=0;entryDx=0;entryDy=0;fontFamily=Helvetica;fontSize=12;fontColor=default;movable=1;resizable=1;rotatable=1;deletable=1;editable=1;locked=0;connectable=1;" edge="1" parent="1" source="Cx75ewkhD1ACkf9_SAcO-220" target="Cx75ewkhD1ACkf9_SAcO-232">
          <mxGeometry relative="1" as="geometry" />
        </mxCell>
        <mxCell id="Cx75ewkhD1ACkf9_SAcO-277" style="edgeStyle=orthogonalEdgeStyle;rounded=0;orthogonalLoop=1;jettySize=auto;html=1;exitX=0.5;exitY=1;exitDx=0;exitDy=0;entryX=0.5;entryY=0;entryDx=0;entryDy=0;fontFamily=Helvetica;fontSize=12;fontColor=default;movable=1;resizable=1;rotatable=1;deletable=1;editable=1;locked=0;connectable=1;" edge="1" parent="1" source="Cx75ewkhD1ACkf9_SAcO-220" target="Cx75ewkhD1ACkf9_SAcO-236">
          <mxGeometry relative="1" as="geometry" />
        </mxCell>
        <mxCell id="Cx75ewkhD1ACkf9_SAcO-278" style="edgeStyle=orthogonalEdgeStyle;rounded=0;orthogonalLoop=1;jettySize=auto;html=1;exitX=0.5;exitY=1;exitDx=0;exitDy=0;entryX=0.5;entryY=0;entryDx=0;entryDy=0;fontFamily=Helvetica;fontSize=12;fontColor=default;movable=1;resizable=1;rotatable=1;deletable=1;editable=1;locked=0;connectable=1;" edge="1" parent="1" source="Cx75ewkhD1ACkf9_SAcO-220" target="Cx75ewkhD1ACkf9_SAcO-240">
          <mxGeometry relative="1" as="geometry" />
        </mxCell>
        <mxCell id="Cx75ewkhD1ACkf9_SAcO-279" style="edgeStyle=orthogonalEdgeStyle;rounded=0;orthogonalLoop=1;jettySize=auto;html=1;exitX=0.5;exitY=1;exitDx=0;exitDy=0;fontFamily=Helvetica;fontSize=12;fontColor=default;movable=1;resizable=1;rotatable=1;deletable=1;editable=1;locked=0;connectable=1;" edge="1" parent="1" source="Cx75ewkhD1ACkf9_SAcO-220" target="Cx75ewkhD1ACkf9_SAcO-224">
          <mxGeometry relative="1" as="geometry" />
        </mxCell>
        <mxCell id="Cx75ewkhD1ACkf9_SAcO-220" value="Staff" style="swimlane;fontStyle=1;align=center;verticalAlign=top;childLayout=stackLayout;horizontal=1;startSize=26;horizontalStack=0;resizeParent=1;resizeParentMax=0;resizeLast=0;collapsible=1;marginBottom=0;whiteSpace=wrap;html=1;movable=1;resizable=1;rotatable=1;deletable=1;editable=1;locked=0;connectable=1;" vertex="1" parent="1">
          <mxGeometry x="1810" y="3280" width="160" height="280" as="geometry">
            <mxRectangle x="1810" y="3280" width="70" height="30" as="alternateBounds" />
          </mxGeometry>
        </mxCell>
        <mxCell id="Cx75ewkhD1ACkf9_SAcO-221" value="- Name: string&amp;nbsp;&lt;br&gt;-Address: string&lt;br&gt;- PhoneNo : string&lt;br&gt;- Role: StaffRole" style="text;strokeColor=none;fillColor=none;align=left;verticalAlign=top;spacingLeft=4;spacingRight=4;overflow=hidden;rotatable=0;points=[[0,0.5],[1,0.5]];portConstraint=eastwest;whiteSpace=wrap;html=1;" vertex="1" parent="Cx75ewkhD1ACkf9_SAcO-220">
          <mxGeometry y="26" width="160" height="64" as="geometry" />
        </mxCell>
        <mxCell id="Cx75ewkhD1ACkf9_SAcO-222" value="" style="line;strokeWidth=1;fillColor=none;align=left;verticalAlign=middle;spacingTop=-1;spacingLeft=3;spacingRight=3;rotatable=0;labelPosition=right;points=[];portConstraint=eastwest;strokeColor=inherit;" vertex="1" parent="Cx75ewkhD1ACkf9_SAcO-220">
          <mxGeometry y="90" width="160" height="8" as="geometry" />
        </mxCell>
        <mxCell id="Cx75ewkhD1ACkf9_SAcO-223" value="&lt;p class=&quot;MsoNormal&quot;&gt;+ DisplayStaffInfo(): void&lt;/p&gt;&lt;p class=&quot;MsoNormal&quot;&gt;+ RoleToString(): string&lt;/p&gt;&lt;p class=&quot;MsoNormal&quot;&gt;+ getRole(): StaffRole&lt;/p&gt;&lt;p class=&quot;MsoNormal&quot;&gt;+ getName(): string&lt;/p&gt;&lt;p class=&quot;MsoNormal&quot;&gt;+ getAddress(): string&lt;/p&gt;&lt;p class=&quot;MsoNormal&quot;&gt;+ getPhoneNo(): string&lt;/p&gt;&lt;div&gt;&lt;/div&gt;" style="text;strokeColor=none;fillColor=none;align=left;verticalAlign=top;spacingLeft=4;spacingRight=4;overflow=hidden;rotatable=0;points=[[0,0.5],[1,0.5]];portConstraint=eastwest;whiteSpace=wrap;html=1;" vertex="1" parent="Cx75ewkhD1ACkf9_SAcO-220">
          <mxGeometry y="98" width="160" height="182" as="geometry" />
        </mxCell>
        <mxCell id="Cx75ewkhD1ACkf9_SAcO-297" style="edgeStyle=orthogonalEdgeStyle;rounded=0;orthogonalLoop=1;jettySize=auto;html=1;exitX=0.5;exitY=1;exitDx=0;exitDy=0;entryX=0.5;entryY=0;entryDx=0;entryDy=0;fontFamily=Helvetica;fontSize=12;fontColor=default;movable=0;resizable=0;rotatable=0;deletable=0;editable=0;locked=1;connectable=0;" edge="1" parent="1" source="Cx75ewkhD1ACkf9_SAcO-224" target="Cx75ewkhD1ACkf9_SAcO-265">
          <mxGeometry relative="1" as="geometry" />
        </mxCell>
        <mxCell id="Cx75ewkhD1ACkf9_SAcO-303" value="*..." style="edgeLabel;html=1;align=center;verticalAlign=middle;resizable=1;points=[];spacingLeft=4;spacingRight=4;fontFamily=Helvetica;fontSize=12;fontColor=default;fillColor=none;gradientColor=none;movable=1;rotatable=1;deletable=1;editable=1;locked=0;connectable=1;" connectable="0" vertex="1" parent="Cx75ewkhD1ACkf9_SAcO-297">
          <mxGeometry x="-0.9557" y="-1" relative="1" as="geometry">
            <mxPoint as="offset" />
          </mxGeometry>
        </mxCell>
        <mxCell id="Cx75ewkhD1ACkf9_SAcO-224" value="Manager" style="swimlane;fontStyle=1;align=center;verticalAlign=top;childLayout=stackLayout;horizontal=1;startSize=26;horizontalStack=0;resizeParent=1;resizeParentMax=0;resizeLast=0;collapsible=1;marginBottom=0;whiteSpace=wrap;html=1;spacingLeft=4;spacingRight=4;fontFamily=Helvetica;fontSize=12;fontColor=default;fillColor=none;gradientColor=none;movable=1;resizable=1;rotatable=1;deletable=1;editable=1;locked=0;connectable=1;" vertex="1" parent="1">
          <mxGeometry x="1600" y="3610" width="160" height="230" as="geometry">
            <mxRectangle x="1600" y="3610" width="90" height="30" as="alternateBounds" />
          </mxGeometry>
        </mxCell>
        <mxCell id="Cx75ewkhD1ACkf9_SAcO-225" value="&lt;p class=&quot;MsoNormal&quot;&gt;- (inherited) Name: string&lt;/p&gt;&lt;span style=&quot;background-color: initial;&quot;&gt;- (inherited) Address: string&lt;/span&gt;&lt;br&gt;&lt;span style=&quot;background-color: initial;&quot;&gt;- (inherited) PhoneNo: string&lt;/span&gt;&lt;br&gt;&lt;p class=&quot;MsoNormal&quot;&gt;&lt;span style=&quot;background-color: initial;&quot;&gt;- (inherited) Role: StaffRole&lt;/span&gt;&lt;/p&gt;&lt;p class=&quot;MsoNormal&quot;&gt;&lt;/p&gt;" style="text;strokeColor=none;fillColor=none;align=left;verticalAlign=top;spacingLeft=4;spacingRight=4;overflow=hidden;rotatable=0;points=[[0,0.5],[1,0.5]];portConstraint=eastwest;whiteSpace=wrap;html=1;fontFamily=Helvetica;fontSize=12;fontColor=default;" vertex="1" parent="Cx75ewkhD1ACkf9_SAcO-224">
          <mxGeometry y="26" width="160" height="124" as="geometry" />
        </mxCell>
        <mxCell id="Cx75ewkhD1ACkf9_SAcO-226" value="" style="line;strokeWidth=1;fillColor=none;align=left;verticalAlign=middle;spacingTop=-1;spacingLeft=3;spacingRight=3;rotatable=0;labelPosition=right;points=[];portConstraint=eastwest;strokeColor=inherit;fontFamily=Helvetica;fontSize=12;fontColor=default;" vertex="1" parent="Cx75ewkhD1ACkf9_SAcO-224">
          <mxGeometry y="150" width="160" height="8" as="geometry" />
        </mxCell>
        <mxCell id="Cx75ewkhD1ACkf9_SAcO-227" value="&lt;div&gt;+ Manager(name: string, address: string, phoneNo: string)&lt;/div&gt;&lt;div&gt;+ DisplayStaffInfo(): void&lt;/div&gt;" style="text;strokeColor=none;fillColor=none;align=left;verticalAlign=top;spacingLeft=4;spacingRight=4;overflow=hidden;rotatable=0;points=[[0,0.5],[1,0.5]];portConstraint=eastwest;whiteSpace=wrap;html=1;fontFamily=Helvetica;fontSize=12;fontColor=default;" vertex="1" parent="Cx75ewkhD1ACkf9_SAcO-224">
          <mxGeometry y="158" width="160" height="72" as="geometry" />
        </mxCell>
        <mxCell id="Cx75ewkhD1ACkf9_SAcO-298" style="edgeStyle=orthogonalEdgeStyle;rounded=0;orthogonalLoop=1;jettySize=auto;html=1;exitX=0.5;exitY=1;exitDx=0;exitDy=0;fontFamily=Helvetica;fontSize=12;fontColor=default;movable=0;resizable=0;rotatable=0;deletable=0;editable=0;locked=1;connectable=0;" edge="1" parent="1" source="Cx75ewkhD1ACkf9_SAcO-228">
          <mxGeometry relative="1" as="geometry">
            <mxPoint x="1840" y="4240" as="targetPoint" />
          </mxGeometry>
        </mxCell>
        <mxCell id="Cx75ewkhD1ACkf9_SAcO-304" value="*..." style="edgeLabel;html=1;align=center;verticalAlign=middle;resizable=1;points=[];spacingLeft=4;spacingRight=4;fontFamily=Helvetica;fontSize=12;fontColor=default;fillColor=none;gradientColor=none;movable=1;rotatable=1;deletable=1;editable=1;locked=0;connectable=1;" connectable="0" vertex="1" parent="Cx75ewkhD1ACkf9_SAcO-298">
          <mxGeometry x="-0.9275" y="-4" relative="1" as="geometry">
            <mxPoint as="offset" />
          </mxGeometry>
        </mxCell>
        <mxCell id="Cx75ewkhD1ACkf9_SAcO-228" value="Delivery" style="swimlane;fontStyle=1;align=center;verticalAlign=top;childLayout=stackLayout;horizontal=1;startSize=26;horizontalStack=0;resizeParent=1;resizeParentMax=0;resizeLast=0;collapsible=1;marginBottom=0;whiteSpace=wrap;html=1;spacingLeft=4;spacingRight=4;fontFamily=Helvetica;fontSize=12;fontColor=default;fillColor=none;gradientColor=none;movable=1;resizable=1;rotatable=1;deletable=1;editable=1;locked=0;connectable=1;" vertex="1" parent="1">
          <mxGeometry x="1800" y="3610" width="160" height="190" as="geometry">
            <mxRectangle x="1800" y="3610" width="90" height="30" as="alternateBounds" />
          </mxGeometry>
        </mxCell>
        <mxCell id="Cx75ewkhD1ACkf9_SAcO-229" value="&lt;div&gt;- (inherited) Name: string&lt;/div&gt;&lt;div&gt;- (inherited) Address: string&lt;/div&gt;&lt;div&gt;- (inherited) PhoneNo: string&lt;/div&gt;&lt;div&gt;- (inherited) Role: StaffRole&lt;/div&gt;" style="text;strokeColor=none;fillColor=none;align=left;verticalAlign=top;spacingLeft=4;spacingRight=4;overflow=hidden;rotatable=0;points=[[0,0.5],[1,0.5]];portConstraint=eastwest;whiteSpace=wrap;html=1;fontFamily=Helvetica;fontSize=12;fontColor=default;" vertex="1" parent="Cx75ewkhD1ACkf9_SAcO-228">
          <mxGeometry y="26" width="160" height="84" as="geometry" />
        </mxCell>
        <mxCell id="Cx75ewkhD1ACkf9_SAcO-230" value="" style="line;strokeWidth=1;fillColor=none;align=left;verticalAlign=middle;spacingTop=-1;spacingLeft=3;spacingRight=3;rotatable=0;labelPosition=right;points=[];portConstraint=eastwest;strokeColor=inherit;fontFamily=Helvetica;fontSize=12;fontColor=default;" vertex="1" parent="Cx75ewkhD1ACkf9_SAcO-228">
          <mxGeometry y="110" width="160" height="8" as="geometry" />
        </mxCell>
        <mxCell id="Cx75ewkhD1ACkf9_SAcO-231" value="&lt;div&gt;+ Delivery(name: string, address: string, phoneNo: string)&lt;/div&gt;&lt;div&gt;+ DisplayStaffInfo(): void&lt;/div&gt;" style="text;strokeColor=none;fillColor=none;align=left;verticalAlign=top;spacingLeft=4;spacingRight=4;overflow=hidden;rotatable=0;points=[[0,0.5],[1,0.5]];portConstraint=eastwest;whiteSpace=wrap;html=1;fontFamily=Helvetica;fontSize=12;fontColor=default;" vertex="1" parent="Cx75ewkhD1ACkf9_SAcO-228">
          <mxGeometry y="118" width="160" height="72" as="geometry" />
        </mxCell>
        <mxCell id="Cx75ewkhD1ACkf9_SAcO-300" style="edgeStyle=orthogonalEdgeStyle;rounded=0;orthogonalLoop=1;jettySize=auto;html=1;exitX=0.5;exitY=1;exitDx=0;exitDy=0;entryX=0.5;entryY=0;entryDx=0;entryDy=0;fontFamily=Helvetica;fontSize=12;fontColor=default;movable=0;resizable=0;rotatable=0;deletable=0;editable=0;locked=1;connectable=0;" edge="1" parent="1" source="Cx75ewkhD1ACkf9_SAcO-232" target="Cx75ewkhD1ACkf9_SAcO-265">
          <mxGeometry relative="1" as="geometry" />
        </mxCell>
        <mxCell id="Cx75ewkhD1ACkf9_SAcO-305" value="*..." style="edgeLabel;html=1;align=center;verticalAlign=middle;resizable=1;points=[];spacingLeft=4;spacingRight=4;fontFamily=Helvetica;fontSize=12;fontColor=default;fillColor=none;gradientColor=none;movable=1;rotatable=1;deletable=1;editable=1;locked=0;connectable=1;" connectable="0" vertex="1" parent="Cx75ewkhD1ACkf9_SAcO-300">
          <mxGeometry x="-0.9505" relative="1" as="geometry">
            <mxPoint as="offset" />
          </mxGeometry>
        </mxCell>
        <mxCell id="Cx75ewkhD1ACkf9_SAcO-232" value="Receptionist" style="swimlane;fontStyle=1;align=center;verticalAlign=top;childLayout=stackLayout;horizontal=1;startSize=26;horizontalStack=0;resizeParent=1;resizeParentMax=0;resizeLast=0;collapsible=1;marginBottom=0;whiteSpace=wrap;html=1;spacingLeft=4;spacingRight=4;fontFamily=Helvetica;fontSize=12;fontColor=default;fillColor=none;gradientColor=none;movable=1;resizable=1;rotatable=1;deletable=1;editable=1;locked=0;connectable=1;" vertex="1" parent="1">
          <mxGeometry x="2007" y="3610" width="160" height="230" as="geometry">
            <mxRectangle x="2007" y="3610" width="120" height="30" as="alternateBounds" />
          </mxGeometry>
        </mxCell>
        <mxCell id="Cx75ewkhD1ACkf9_SAcO-233" value="&lt;p class=&quot;MsoNormal&quot;&gt;- (inherited) Name: string&lt;/p&gt;&lt;span style=&quot;background-color: initial;&quot;&gt;- (inherited) Address: string&lt;/span&gt;&lt;br&gt;&lt;span style=&quot;background-color: initial;&quot;&gt;- (inherited) PhoneNo: string&lt;/span&gt;&lt;br&gt;&lt;p class=&quot;MsoNormal&quot;&gt;&lt;span style=&quot;background-color: initial;&quot;&gt;- (inherited) Role: StaffRole&lt;/span&gt;&lt;/p&gt;&lt;p class=&quot;MsoNormal&quot;&gt;&lt;/p&gt;" style="text;strokeColor=none;fillColor=none;align=left;verticalAlign=top;spacingLeft=4;spacingRight=4;overflow=hidden;rotatable=0;points=[[0,0.5],[1,0.5]];portConstraint=eastwest;whiteSpace=wrap;html=1;fontFamily=Helvetica;fontSize=12;fontColor=default;" vertex="1" parent="Cx75ewkhD1ACkf9_SAcO-232">
          <mxGeometry y="26" width="160" height="124" as="geometry" />
        </mxCell>
        <mxCell id="Cx75ewkhD1ACkf9_SAcO-234" value="" style="line;strokeWidth=1;fillColor=none;align=left;verticalAlign=middle;spacingTop=-1;spacingLeft=3;spacingRight=3;rotatable=0;labelPosition=right;points=[];portConstraint=eastwest;strokeColor=inherit;fontFamily=Helvetica;fontSize=12;fontColor=default;" vertex="1" parent="Cx75ewkhD1ACkf9_SAcO-232">
          <mxGeometry y="150" width="160" height="8" as="geometry" />
        </mxCell>
        <mxCell id="Cx75ewkhD1ACkf9_SAcO-235" value="&lt;div&gt;+ Receptionist(name: string, address: string, phoneNo: string)&lt;/div&gt;&lt;div&gt;+ DisplayStaffInfo(): void&lt;/div&gt;" style="text;strokeColor=none;fillColor=none;align=left;verticalAlign=top;spacingLeft=4;spacingRight=4;overflow=hidden;rotatable=0;points=[[0,0.5],[1,0.5]];portConstraint=eastwest;whiteSpace=wrap;html=1;fontFamily=Helvetica;fontSize=12;fontColor=default;" vertex="1" parent="Cx75ewkhD1ACkf9_SAcO-232">
          <mxGeometry y="158" width="160" height="72" as="geometry" />
        </mxCell>
        <mxCell id="Cx75ewkhD1ACkf9_SAcO-301" style="edgeStyle=orthogonalEdgeStyle;rounded=0;orthogonalLoop=1;jettySize=auto;html=1;exitX=0.5;exitY=1;exitDx=0;exitDy=0;entryX=0.5;entryY=0;entryDx=0;entryDy=0;fontFamily=Helvetica;fontSize=12;fontColor=default;movable=0;resizable=0;rotatable=0;deletable=0;editable=0;locked=1;connectable=0;" edge="1" parent="1" source="Cx75ewkhD1ACkf9_SAcO-236" target="Cx75ewkhD1ACkf9_SAcO-265">
          <mxGeometry relative="1" as="geometry" />
        </mxCell>
        <mxCell id="Cx75ewkhD1ACkf9_SAcO-306" value="*..." style="edgeLabel;html=1;align=center;verticalAlign=middle;resizable=1;points=[];spacingLeft=4;spacingRight=4;fontFamily=Helvetica;fontSize=12;fontColor=default;fillColor=none;gradientColor=none;movable=1;rotatable=1;deletable=1;editable=1;locked=0;connectable=1;" connectable="0" vertex="1" parent="Cx75ewkhD1ACkf9_SAcO-301">
          <mxGeometry x="-0.966" y="-1" relative="1" as="geometry">
            <mxPoint as="offset" />
          </mxGeometry>
        </mxCell>
        <mxCell id="Cx75ewkhD1ACkf9_SAcO-236" value="chef" style="swimlane;fontStyle=1;align=center;verticalAlign=top;childLayout=stackLayout;horizontal=1;startSize=26;horizontalStack=0;resizeParent=1;resizeParentMax=0;resizeLast=0;collapsible=1;marginBottom=0;whiteSpace=wrap;html=1;spacingLeft=4;spacingRight=4;fontFamily=Helvetica;fontSize=12;fontColor=default;fillColor=none;gradientColor=none;movable=1;resizable=1;rotatable=1;deletable=1;editable=1;locked=0;connectable=1;" vertex="1" parent="1">
          <mxGeometry x="2240" y="3610" width="180" height="310" as="geometry">
            <mxRectangle x="2240" y="3610" width="70" height="30" as="alternateBounds" />
          </mxGeometry>
        </mxCell>
        <mxCell id="Cx75ewkhD1ACkf9_SAcO-237" value="&lt;p class=&quot;MsoNormal&quot;&gt;- (inherited) Name: string&lt;/p&gt;&lt;p class=&quot;MsoNormal&quot;&gt;- (inherited) Address: string&lt;/p&gt;&lt;p class=&quot;MsoNormal&quot;&gt;- (inherited) PhoneNo: string&lt;/p&gt;&lt;p class=&quot;MsoNormal&quot;&gt;- (inherited) Role: StaffRole&lt;/p&gt;&lt;p class=&quot;MsoNormal&quot;&gt;- CuisineSpeciality: string&lt;/p&gt;&lt;p class=&quot;MsoNormal&quot;&gt;&lt;/p&gt;" style="text;strokeColor=none;fillColor=none;align=left;verticalAlign=top;spacingLeft=4;spacingRight=4;overflow=hidden;rotatable=0;points=[[0,0.5],[1,0.5]];portConstraint=eastwest;whiteSpace=wrap;html=1;fontFamily=Helvetica;fontSize=12;fontColor=default;" vertex="1" parent="Cx75ewkhD1ACkf9_SAcO-236">
          <mxGeometry y="26" width="180" height="164" as="geometry" />
        </mxCell>
        <mxCell id="Cx75ewkhD1ACkf9_SAcO-238" value="" style="line;strokeWidth=1;fillColor=none;align=left;verticalAlign=middle;spacingTop=-1;spacingLeft=3;spacingRight=3;rotatable=0;labelPosition=right;points=[];portConstraint=eastwest;strokeColor=inherit;fontFamily=Helvetica;fontSize=12;fontColor=default;" vertex="1" parent="Cx75ewkhD1ACkf9_SAcO-236">
          <mxGeometry y="190" width="180" height="8" as="geometry" />
        </mxCell>
        <mxCell id="Cx75ewkhD1ACkf9_SAcO-239" value="&lt;div&gt;+ Chef(name: string, address: string, phoneNo: string, cuisine: string)&lt;/div&gt;&lt;div&gt;+ DisplayStaffInfo(): void&lt;/div&gt;&lt;div&gt;+ getCuisineSpeciality(): string&lt;/div&gt;&lt;div&gt;+ setCuisineSpeciality(cuisine: string): void&lt;/div&gt;" style="text;strokeColor=none;fillColor=none;align=left;verticalAlign=top;spacingLeft=4;spacingRight=4;overflow=hidden;rotatable=0;points=[[0,0.5],[1,0.5]];portConstraint=eastwest;whiteSpace=wrap;html=1;fontFamily=Helvetica;fontSize=12;fontColor=default;" vertex="1" parent="Cx75ewkhD1ACkf9_SAcO-236">
          <mxGeometry y="198" width="180" height="112" as="geometry" />
        </mxCell>
        <mxCell id="Cx75ewkhD1ACkf9_SAcO-281" style="edgeStyle=orthogonalEdgeStyle;rounded=0;orthogonalLoop=1;jettySize=auto;html=1;exitX=0;exitY=0.5;exitDx=0;exitDy=0;fontFamily=Helvetica;fontSize=12;fontColor=default;entryX=1;entryY=0.5;entryDx=0;entryDy=0;movable=1;resizable=1;rotatable=1;deletable=1;editable=1;locked=0;connectable=1;" edge="1" parent="1" source="Cx75ewkhD1ACkf9_SAcO-240" target="Cx75ewkhD1ACkf9_SAcO-249">
          <mxGeometry relative="1" as="geometry">
            <mxPoint x="1400" y="4050" as="targetPoint" />
            <Array as="points">
              <mxPoint x="1340" y="3625" />
              <mxPoint x="1340" y="3720" />
              <mxPoint x="1250" y="3720" />
            </Array>
          </mxGeometry>
        </mxCell>
        <mxCell id="Cx75ewkhD1ACkf9_SAcO-289" value="*..." style="edgeLabel;html=1;align=center;verticalAlign=middle;resizable=1;points=[];spacingLeft=4;spacingRight=4;fontFamily=Helvetica;fontSize=12;fontColor=default;fillColor=none;gradientColor=none;movable=1;rotatable=1;deletable=1;editable=1;locked=0;connectable=1;" connectable="0" vertex="1" parent="Cx75ewkhD1ACkf9_SAcO-281">
          <mxGeometry x="0.7828" y="-1" relative="1" as="geometry">
            <mxPoint as="offset" />
          </mxGeometry>
        </mxCell>
        <mxCell id="Cx75ewkhD1ACkf9_SAcO-291" value="*..." style="edgeLabel;html=1;align=center;verticalAlign=middle;resizable=1;points=[];spacingLeft=4;spacingRight=4;fontFamily=Helvetica;fontSize=12;fontColor=default;fillColor=none;gradientColor=none;movable=1;rotatable=1;deletable=1;editable=1;locked=0;connectable=1;" connectable="0" vertex="1" parent="Cx75ewkhD1ACkf9_SAcO-281">
          <mxGeometry x="-0.815" y="11" relative="1" as="geometry">
            <mxPoint as="offset" />
          </mxGeometry>
        </mxCell>
        <mxCell id="Cx75ewkhD1ACkf9_SAcO-294" style="edgeStyle=orthogonalEdgeStyle;rounded=0;orthogonalLoop=1;jettySize=auto;html=1;exitX=0.5;exitY=1;exitDx=0;exitDy=0;entryX=0.5;entryY=0;entryDx=0;entryDy=0;fontFamily=Helvetica;fontSize=12;fontColor=default;movable=0;resizable=0;rotatable=0;deletable=0;editable=0;locked=1;connectable=0;" edge="1" parent="1" source="Cx75ewkhD1ACkf9_SAcO-240" target="Cx75ewkhD1ACkf9_SAcO-265">
          <mxGeometry relative="1" as="geometry" />
        </mxCell>
        <mxCell id="Cx75ewkhD1ACkf9_SAcO-302" value="*..." style="edgeLabel;html=1;align=center;verticalAlign=middle;resizable=1;points=[];spacingLeft=4;spacingRight=4;fontFamily=Helvetica;fontSize=12;fontColor=default;fillColor=none;gradientColor=none;movable=1;rotatable=1;deletable=1;editable=1;locked=0;connectable=1;" connectable="0" vertex="1" parent="Cx75ewkhD1ACkf9_SAcO-294">
          <mxGeometry x="-0.9619" y="4" relative="1" as="geometry">
            <mxPoint as="offset" />
          </mxGeometry>
        </mxCell>
        <mxCell id="Cx75ewkhD1ACkf9_SAcO-307" value="1" style="edgeLabel;html=1;align=center;verticalAlign=middle;resizable=0;points=[];spacingLeft=4;spacingRight=4;fontFamily=Helvetica;fontSize=12;fontColor=default;fillColor=none;gradientColor=none;movable=0;rotatable=0;deletable=0;editable=0;locked=1;connectable=0;" connectable="0" vertex="1" parent="Cx75ewkhD1ACkf9_SAcO-294">
          <mxGeometry x="0.9295" y="-5" relative="1" as="geometry">
            <mxPoint as="offset" />
          </mxGeometry>
        </mxCell>
        <mxCell id="Cx75ewkhD1ACkf9_SAcO-240" value="CustomerInfo" style="swimlane;fontStyle=1;align=center;verticalAlign=top;childLayout=stackLayout;horizontal=1;startSize=26;horizontalStack=0;resizeParent=1;resizeParentMax=0;resizeLast=0;collapsible=1;marginBottom=0;whiteSpace=wrap;html=1;spacingLeft=4;spacingRight=4;fontFamily=Helvetica;fontSize=12;fontColor=default;fillColor=none;gradientColor=none;movable=1;resizable=1;rotatable=1;deletable=1;editable=1;locked=0;connectable=1;" vertex="1" parent="1">
          <mxGeometry x="1380" y="3610" width="210" height="550" as="geometry">
            <mxRectangle x="1380" y="3610" width="120" height="30" as="alternateBounds" />
          </mxGeometry>
        </mxCell>
        <mxCell id="Cx75ewkhD1ACkf9_SAcO-241" value="&lt;p class=&quot;MsoNormal&quot;&gt;- (inherited) Name: string&lt;/p&gt;&lt;p class=&quot;MsoNormal&quot;&gt;- (inherited) Address: string&lt;/p&gt;&lt;p class=&quot;MsoNormal&quot;&gt;- (inherited) PhoneNo: string&lt;/p&gt;&lt;p class=&quot;MsoNormal&quot;&gt;- (inherited) Role: StaffRole&lt;/p&gt;&lt;p class=&quot;MsoNormal&quot;&gt;- OrdersVector: vector&amp;lt;Order&amp;gt;&lt;/p&gt;&lt;p class=&quot;MsoNormal&quot;&gt;- CustomerID: string&lt;/p&gt;&lt;p class=&quot;MsoNormal&quot;&gt;&lt;/p&gt;" style="text;strokeColor=none;fillColor=none;align=left;verticalAlign=top;spacingLeft=4;spacingRight=4;overflow=hidden;rotatable=0;points=[[0,0.5],[1,0.5]];portConstraint=eastwest;whiteSpace=wrap;html=1;fontFamily=Helvetica;fontSize=12;fontColor=default;" vertex="1" parent="Cx75ewkhD1ACkf9_SAcO-240">
          <mxGeometry y="26" width="210" height="174" as="geometry" />
        </mxCell>
        <mxCell id="Cx75ewkhD1ACkf9_SAcO-242" value="" style="line;strokeWidth=1;fillColor=none;align=left;verticalAlign=middle;spacingTop=-1;spacingLeft=3;spacingRight=3;rotatable=0;labelPosition=right;points=[];portConstraint=eastwest;strokeColor=inherit;fontFamily=Helvetica;fontSize=12;fontColor=default;" vertex="1" parent="Cx75ewkhD1ACkf9_SAcO-240">
          <mxGeometry y="200" width="210" height="8" as="geometry" />
        </mxCell>
        <mxCell id="Cx75ewkhD1ACkf9_SAcO-243" value="&lt;div&gt;+ CustomerInfo()&lt;/div&gt;&lt;div&gt;+ CustomerInfo(name: string, address: string, phoneNo: string, ID: string)&lt;/div&gt;&lt;div&gt;+ DisplayCustomerInfo(): void&lt;/div&gt;&lt;div&gt;+ displayCustomerInfoWithOrders(): void&lt;/div&gt;&lt;div&gt;+ addName(): void&lt;/div&gt;&lt;div&gt;+ getName(): string&lt;/div&gt;&lt;div&gt;+ addAdress(): void&lt;/div&gt;&lt;div&gt;+ getAdress(): string&lt;/div&gt;&lt;div&gt;+ addPhoneNo(): void&lt;/div&gt;&lt;div&gt;+ getPhoneNo(): string&lt;/div&gt;&lt;div&gt;+ getCustomerID(): string&lt;/div&gt;&lt;div&gt;+ addOrder(order: Order): void&lt;/div&gt;&lt;div&gt;+ setItemName(name: string): void&lt;/div&gt;&lt;div&gt;+ setPhoneNo(p: string): void&lt;/div&gt;&lt;div&gt;+ setAddress(address: string): void&lt;/div&gt;&lt;div&gt;+ addCustomerData(): void&lt;/div&gt;&lt;div&gt;+ getOrdersVector(): vector&amp;lt;Order&amp;gt;&lt;/div&gt;&lt;div&gt;+ getNumOrders(): int&lt;/div&gt;&lt;div&gt;+ displayNumOrder(): void&lt;/div&gt;" style="text;strokeColor=none;fillColor=none;align=left;verticalAlign=top;spacingLeft=4;spacingRight=4;overflow=hidden;rotatable=0;points=[[0,0.5],[1,0.5]];portConstraint=eastwest;whiteSpace=wrap;html=1;fontFamily=Helvetica;fontSize=12;fontColor=default;" vertex="1" parent="Cx75ewkhD1ACkf9_SAcO-240">
          <mxGeometry y="208" width="210" height="342" as="geometry" />
        </mxCell>
        <mxCell id="Cx75ewkhD1ACkf9_SAcO-285" style="edgeStyle=orthogonalEdgeStyle;rounded=0;orthogonalLoop=1;jettySize=auto;html=1;exitX=0.5;exitY=1;exitDx=0;exitDy=0;entryX=0;entryY=0.5;entryDx=0;entryDy=0;fontFamily=Helvetica;fontSize=12;fontColor=default;movable=0;resizable=0;rotatable=0;deletable=0;editable=0;locked=1;connectable=0;" edge="1" parent="1" source="Cx75ewkhD1ACkf9_SAcO-244" target="Cx75ewkhD1ACkf9_SAcO-262">
          <mxGeometry relative="1" as="geometry" />
        </mxCell>
        <mxCell id="Cx75ewkhD1ACkf9_SAcO-244" value="FoodMenu" style="swimlane;fontStyle=1;align=center;verticalAlign=top;childLayout=stackLayout;horizontal=1;startSize=26;horizontalStack=0;resizeParent=1;resizeParentMax=0;resizeLast=0;collapsible=1;marginBottom=0;whiteSpace=wrap;html=1;spacingLeft=4;spacingRight=4;fontFamily=Helvetica;fontSize=12;fontColor=default;fillColor=none;gradientColor=none;movable=0;resizable=0;rotatable=0;deletable=0;editable=0;locked=1;connectable=0;" vertex="1" parent="1">
          <mxGeometry x="590" y="3610" width="240" height="446" as="geometry">
            <mxRectangle x="1070" y="3280" width="120" height="30" as="alternateBounds" />
          </mxGeometry>
        </mxCell>
        <mxCell id="Cx75ewkhD1ACkf9_SAcO-245" value="&lt;p class=&quot;MsoNormal&quot;&gt;- CuisineType: string&lt;/p&gt;&lt;p class=&quot;MsoNormal&quot;&gt;- ItemName: string&lt;/p&gt;&lt;p class=&quot;MsoNormal&quot;&gt;- availability: int&lt;/p&gt;&lt;p class=&quot;MsoNormal&quot;&gt;- price: double&lt;/p&gt;&lt;p class=&quot;MsoNormal&quot;&gt;- PopularityRating: double&lt;/p&gt;&lt;p class=&quot;MsoNormal&quot;&gt;&lt;/p&gt;" style="text;strokeColor=none;fillColor=none;align=left;verticalAlign=top;spacingLeft=4;spacingRight=4;overflow=hidden;rotatable=0;points=[[0,0.5],[1,0.5]];portConstraint=eastwest;whiteSpace=wrap;html=1;fontFamily=Helvetica;fontSize=12;fontColor=default;movable=0;resizable=0;deletable=0;editable=0;locked=1;connectable=0;" vertex="1" parent="Cx75ewkhD1ACkf9_SAcO-244">
          <mxGeometry y="26" width="240" height="140" as="geometry" />
        </mxCell>
        <mxCell id="Cx75ewkhD1ACkf9_SAcO-246" value="" style="line;strokeWidth=1;fillColor=none;align=left;verticalAlign=middle;spacingTop=-1;spacingLeft=3;spacingRight=3;rotatable=0;labelPosition=right;points=[];portConstraint=eastwest;strokeColor=inherit;fontFamily=Helvetica;fontSize=12;fontColor=default;movable=0;resizable=0;deletable=0;editable=0;locked=1;connectable=0;" vertex="1" parent="Cx75ewkhD1ACkf9_SAcO-244">
          <mxGeometry y="166" width="240" height="8" as="geometry" />
        </mxCell>
        <mxCell id="Cx75ewkhD1ACkf9_SAcO-247" value="&lt;div&gt;+ FoodMenu()&lt;/div&gt;&lt;div&gt;+ addItem(): void&lt;/div&gt;&lt;div&gt;+ addPrice(): void&lt;/div&gt;&lt;div&gt;+ addAvailability(): void&lt;/div&gt;&lt;div&gt;+ addCuisineType(): void&lt;/div&gt;&lt;div&gt;+ setCuisine(cuisine: string): void&lt;/div&gt;&lt;div&gt;+ setItemName(name: string): void&lt;/div&gt;&lt;div&gt;+ setPrice(p: double): void&lt;/div&gt;&lt;div&gt;+ setAvailability(avail: int): void&lt;/div&gt;&lt;div&gt;+ getname(): string&lt;/div&gt;&lt;div&gt;+ getPrice(): double&lt;/div&gt;&lt;div&gt;+ getPriceforFile(): string&lt;/div&gt;&lt;div&gt;+ getAvailability(): int&lt;/div&gt;&lt;div&gt;+ getAvailabilityforFile(): string&lt;/div&gt;&lt;div&gt;+ addData(): void&lt;/div&gt;&lt;div&gt;+ setPopularityRating(totalQuantity: int): void&lt;/div&gt;&lt;div&gt;+ Popularity(): int&lt;/div&gt;" style="text;strokeColor=none;fillColor=none;align=left;verticalAlign=top;spacingLeft=4;spacingRight=4;overflow=hidden;rotatable=0;points=[[0,0.5],[1,0.5]];portConstraint=eastwest;whiteSpace=wrap;html=1;fontFamily=Helvetica;fontSize=12;fontColor=default;movable=0;resizable=0;deletable=0;editable=0;locked=1;connectable=0;" vertex="1" parent="Cx75ewkhD1ACkf9_SAcO-244">
          <mxGeometry y="174" width="240" height="272" as="geometry" />
        </mxCell>
        <mxCell id="Cx75ewkhD1ACkf9_SAcO-284" style="edgeStyle=orthogonalEdgeStyle;rounded=0;orthogonalLoop=1;jettySize=auto;html=1;exitX=0.5;exitY=1;exitDx=0;exitDy=0;entryX=0.5;entryY=0;entryDx=0;entryDy=0;fontFamily=Helvetica;fontSize=12;fontColor=default;movable=0;resizable=0;rotatable=0;deletable=0;editable=0;locked=1;connectable=0;" edge="1" parent="1" source="Cx75ewkhD1ACkf9_SAcO-248" target="Cx75ewkhD1ACkf9_SAcO-261">
          <mxGeometry relative="1" as="geometry" />
        </mxCell>
        <mxCell id="Cx75ewkhD1ACkf9_SAcO-286" value="1" style="edgeLabel;html=1;align=center;verticalAlign=middle;resizable=0;points=[];spacingLeft=4;spacingRight=4;fontFamily=Helvetica;fontSize=12;fontColor=default;fillColor=none;gradientColor=none;movable=0;rotatable=0;deletable=0;editable=0;locked=1;connectable=0;" connectable="0" vertex="1" parent="Cx75ewkhD1ACkf9_SAcO-284">
          <mxGeometry x="-0.7699" y="-5" relative="1" as="geometry">
            <mxPoint as="offset" />
          </mxGeometry>
        </mxCell>
        <mxCell id="Cx75ewkhD1ACkf9_SAcO-288" value="1*..." style="edgeLabel;html=1;align=center;verticalAlign=middle;resizable=0;points=[];spacingLeft=4;spacingRight=4;fontFamily=Helvetica;fontSize=12;fontColor=default;fillColor=none;gradientColor=none;movable=0;rotatable=0;deletable=0;editable=0;locked=1;connectable=0;" connectable="0" vertex="1" parent="Cx75ewkhD1ACkf9_SAcO-284">
          <mxGeometry x="0.7748" y="-3" relative="1" as="geometry">
            <mxPoint as="offset" />
          </mxGeometry>
        </mxCell>
        <mxCell id="Cx75ewkhD1ACkf9_SAcO-248" value="&lt;div&gt;Restaurant&lt;/div&gt;&lt;div&gt;&lt;br&gt;&lt;/div&gt;" style="swimlane;fontStyle=1;align=center;verticalAlign=top;childLayout=stackLayout;horizontal=1;startSize=26;horizontalStack=0;resizeParent=1;resizeParentMax=0;resizeLast=0;collapsible=1;marginBottom=0;whiteSpace=wrap;html=1;spacingLeft=4;spacingRight=4;fontFamily=Helvetica;fontSize=12;fontColor=default;fillColor=none;gradientColor=none;movable=0;resizable=0;rotatable=0;deletable=0;editable=0;locked=1;connectable=0;" vertex="1" parent="1">
          <mxGeometry x="1010" y="3610" width="240" height="460" as="geometry">
            <mxRectangle x="60" y="3570" width="120" height="30" as="alternateBounds" />
          </mxGeometry>
        </mxCell>
        <mxCell id="Cx75ewkhD1ACkf9_SAcO-249" value="&lt;p class=&quot;MsoNormal&quot;&gt;- limit: int&lt;/p&gt;&lt;p class=&quot;MsoNormal&quot;&gt;- availability: int&lt;/p&gt;&lt;p class=&quot;MsoNormal&quot;&gt;- foodobj: FoodMenu&lt;/p&gt;&lt;p class=&quot;MsoNormal&quot;&gt;- FoodItems: vector&amp;lt;FoodMenu&amp;gt;&lt;/p&gt;&lt;p class=&quot;MsoNormal&quot;&gt;- customers: vector&amp;lt;CustomerInfo&amp;gt;&lt;/p&gt;&lt;p class=&quot;MsoNormal&quot;&gt;- customerObj: CustomerInfo&lt;/p&gt;&lt;p class=&quot;MsoNormal&quot;&gt;&lt;/p&gt;" style="text;strokeColor=none;fillColor=none;align=left;verticalAlign=top;spacingLeft=4;spacingRight=4;overflow=hidden;rotatable=0;points=[[0,0.5],[1,0.5]];portConstraint=eastwest;whiteSpace=wrap;html=1;fontFamily=Helvetica;fontSize=12;fontColor=default;movable=0;resizable=0;deletable=0;editable=0;locked=1;connectable=0;" vertex="1" parent="Cx75ewkhD1ACkf9_SAcO-248">
          <mxGeometry y="26" width="240" height="174" as="geometry" />
        </mxCell>
        <mxCell id="Cx75ewkhD1ACkf9_SAcO-250" value="" style="line;strokeWidth=1;fillColor=none;align=left;verticalAlign=middle;spacingTop=-1;spacingLeft=3;spacingRight=3;rotatable=0;labelPosition=right;points=[];portConstraint=eastwest;strokeColor=inherit;fontFamily=Helvetica;fontSize=12;fontColor=default;movable=0;resizable=0;deletable=0;editable=0;locked=1;connectable=0;" vertex="1" parent="Cx75ewkhD1ACkf9_SAcO-248">
          <mxGeometry y="200" width="240" height="8" as="geometry" />
        </mxCell>
        <mxCell id="Cx75ewkhD1ACkf9_SAcO-251" value="&lt;div&gt;+ Restaurant()&lt;/div&gt;&lt;div&gt;+ CustomerVector(): void&lt;/div&gt;&lt;div&gt;+ displayCustomers(customers: vector&amp;lt;CustomerInfo&amp;gt;&amp;amp;): void&lt;/div&gt;&lt;div&gt;+ addFoodData(): vector&amp;lt;FoodMenu&amp;gt;&lt;/div&gt;&lt;div&gt;+ displayFullMenu(): void&lt;/div&gt;&lt;div&gt;+ displayFoodItems(): void&lt;/div&gt;&lt;div&gt;+ displayAvailability(): void&lt;/div&gt;&lt;div&gt;+ displayPrice(): void&lt;/div&gt;&lt;div&gt;+ addStaff(staff: vector&amp;lt;Staff*&amp;gt;&amp;amp;): void&lt;/div&gt;&lt;div&gt;+ LoadFoodMenuFromFile(filename: string): void&lt;/div&gt;&lt;div&gt;+ WriteToFile_Food(): void&lt;/div&gt;&lt;div&gt;+ LoadFromFile_Food(filename: string): vector&amp;lt;FoodMenu&amp;gt;&lt;/div&gt;&lt;div&gt;+ getFoodItems(): vector&amp;lt;FoodMenu&amp;gt;&amp;amp;&lt;/div&gt;" style="text;strokeColor=none;fillColor=none;align=left;verticalAlign=top;spacingLeft=4;spacingRight=4;overflow=hidden;rotatable=0;points=[[0,0.5],[1,0.5]];portConstraint=eastwest;whiteSpace=wrap;html=1;fontFamily=Helvetica;fontSize=12;fontColor=default;movable=0;resizable=0;deletable=0;editable=0;locked=1;connectable=0;" vertex="1" parent="Cx75ewkhD1ACkf9_SAcO-248">
          <mxGeometry y="208" width="240" height="252" as="geometry" />
        </mxCell>
        <mxCell id="Cx75ewkhD1ACkf9_SAcO-312" style="edgeStyle=orthogonalEdgeStyle;rounded=0;orthogonalLoop=1;jettySize=auto;html=1;exitX=0.5;exitY=1;exitDx=0;exitDy=0;entryX=0.5;entryY=0;entryDx=0;entryDy=0;fontFamily=Helvetica;fontSize=12;fontColor=default;movable=0;resizable=0;rotatable=0;deletable=0;editable=0;locked=1;connectable=0;" edge="1" parent="1" source="Cx75ewkhD1ACkf9_SAcO-261" target="Cx75ewkhD1ACkf9_SAcO-269">
          <mxGeometry relative="1" as="geometry" />
        </mxCell>
        <mxCell id="Cx75ewkhD1ACkf9_SAcO-314" value="1" style="edgeLabel;html=1;align=center;verticalAlign=middle;resizable=0;points=[];spacingLeft=4;spacingRight=4;fontFamily=Helvetica;fontSize=12;fontColor=default;fillColor=none;gradientColor=none;movable=0;rotatable=0;deletable=0;editable=0;locked=1;connectable=0;" connectable="0" vertex="1" parent="Cx75ewkhD1ACkf9_SAcO-312">
          <mxGeometry x="-0.9001" y="-2" relative="1" as="geometry">
            <mxPoint y="1" as="offset" />
          </mxGeometry>
        </mxCell>
        <mxCell id="Cx75ewkhD1ACkf9_SAcO-261" value="Customer" style="swimlane;fontStyle=1;align=center;verticalAlign=top;childLayout=stackLayout;horizontal=1;startSize=26;horizontalStack=0;resizeParent=1;resizeParentMax=0;resizeLast=0;collapsible=1;marginBottom=0;whiteSpace=wrap;html=1;spacingLeft=4;spacingRight=4;fontFamily=Helvetica;fontSize=12;fontColor=default;fillColor=none;gradientColor=none;movable=0;resizable=0;rotatable=0;deletable=0;editable=0;locked=1;connectable=0;" vertex="1" parent="1">
          <mxGeometry x="870" y="4231" width="250" height="630" as="geometry" />
        </mxCell>
        <mxCell id="Cx75ewkhD1ACkf9_SAcO-262" value="&lt;p style=&quot;border-color: var(--border-color);&quot; class=&quot;MsoNormal&quot;&gt;-customerObj: CustomerInfo&lt;/p&gt;&lt;p style=&quot;border-color: var(--border-color);&quot; class=&quot;MsoNormal&quot;&gt;-Restaurantobj: Restaurant&lt;/p&gt;&lt;p style=&quot;border-color: var(--border-color);&quot; class=&quot;MsoNormal&quot;&gt;-foodobj: FoodMenu&lt;/p&gt;&lt;p style=&quot;border-color: var(--border-color);&quot; class=&quot;MsoNormal&quot;&gt;-customers: vector&amp;lt;CustomerInfo&amp;gt;&lt;/p&gt;&lt;p style=&quot;border-color: var(--border-color);&quot; class=&quot;MsoNormal&quot;&gt;-FoodItems: vector&amp;lt;FoodMenu&amp;gt;&lt;/p&gt;&lt;p style=&quot;border-color: var(--border-color);&quot; class=&quot;MsoNormal&quot;&gt;-orderList: vector&amp;lt;Order&amp;gt;&lt;/p&gt;&lt;p style=&quot;border-color: var(--border-color);&quot; class=&quot;MsoNormal&quot;&gt;-loyalCustomers: vector&amp;lt;string&amp;gt;&lt;/p&gt;&lt;p style=&quot;border-color: var(--border-color);&quot; class=&quot;MsoNormal&quot;&gt;-progress: bool&lt;/p&gt;&lt;p style=&quot;border-color: var(--border-color);&quot; class=&quot;MsoNormal&quot;&gt;-progression: bool&lt;/p&gt;&lt;p style=&quot;border-color: var(--border-color);&quot; class=&quot;MsoNormal&quot;&gt;-option: int&lt;/p&gt;&lt;p style=&quot;border-color: var(--border-color);&quot; class=&quot;MsoNormal&quot;&gt;-quantity: int&lt;/p&gt;&lt;p style=&quot;border-color: var(--border-color);&quot; class=&quot;MsoNormal&quot;&gt;-numOrders: int&lt;/p&gt;&lt;p style=&quot;border-color: var(--border-color);&quot; class=&quot;MsoNormal&quot;&gt;-limit: int&lt;/p&gt;&lt;p style=&quot;border-color: var(--border-color);&quot; class=&quot;MsoNormal&quot;&gt;-totalIncome: double&lt;/p&gt;&lt;p style=&quot;border-color: var(--border-color);&quot; class=&quot;MsoNormal&quot;&gt;-ans: char&lt;/p&gt;" style="text;strokeColor=none;fillColor=none;align=left;verticalAlign=top;spacingLeft=4;spacingRight=4;overflow=hidden;rotatable=0;points=[[0,0.5],[1,0.5]];portConstraint=eastwest;whiteSpace=wrap;html=1;fontFamily=Helvetica;fontSize=12;fontColor=default;movable=0;resizable=0;deletable=0;editable=0;locked=1;connectable=0;" vertex="1" parent="Cx75ewkhD1ACkf9_SAcO-261">
          <mxGeometry y="26" width="250" height="414" as="geometry" />
        </mxCell>
        <mxCell id="Cx75ewkhD1ACkf9_SAcO-263" value="" style="line;strokeWidth=1;fillColor=none;align=left;verticalAlign=middle;spacingTop=-1;spacingLeft=3;spacingRight=3;rotatable=0;labelPosition=right;points=[];portConstraint=eastwest;strokeColor=inherit;fontFamily=Helvetica;fontSize=12;fontColor=default;movable=0;resizable=0;deletable=0;editable=0;locked=1;connectable=0;" vertex="1" parent="Cx75ewkhD1ACkf9_SAcO-261">
          <mxGeometry y="440" width="250" height="8" as="geometry" />
        </mxCell>
        <mxCell id="Cx75ewkhD1ACkf9_SAcO-264" value="&lt;div&gt;+ Customer()&lt;/div&gt;&lt;div&gt;+ WriteToFile_Customer()&lt;/div&gt;&lt;div&gt;+ LoadFromFile_customer()&lt;/div&gt;&lt;div&gt;+ placeOrder(vector&amp;lt;FoodMenu&amp;gt;&amp;amp;)&lt;/div&gt;&lt;div&gt;+ addOrder(const Order&amp;amp;)&lt;/div&gt;&lt;div&gt;+ identifyLoyalCustomers()&lt;/div&gt;&lt;div&gt;+ calculateTotalIncome()&lt;/div&gt;&lt;div&gt;+ calculateTotalOrders()&lt;/div&gt;&lt;div&gt;+ displayLoyalCustomer(vector&amp;lt;string&amp;gt;&amp;amp;)&lt;/div&gt;&lt;div&gt;+ displayOrderedFood()&lt;/div&gt;&lt;div&gt;+ calculatePopularity()&lt;/div&gt;&lt;div&gt;+ startCustomer()&lt;/div&gt;" style="text;strokeColor=none;fillColor=none;align=left;verticalAlign=top;spacingLeft=4;spacingRight=4;overflow=hidden;rotatable=0;points=[[0,0.5],[1,0.5]];portConstraint=eastwest;whiteSpace=wrap;html=1;fontFamily=Helvetica;fontSize=12;fontColor=default;movable=0;resizable=0;deletable=0;editable=0;locked=1;connectable=0;" vertex="1" parent="Cx75ewkhD1ACkf9_SAcO-261">
          <mxGeometry y="448" width="250" height="182" as="geometry" />
        </mxCell>
        <mxCell id="Cx75ewkhD1ACkf9_SAcO-313" style="edgeStyle=orthogonalEdgeStyle;rounded=0;orthogonalLoop=1;jettySize=auto;html=1;exitX=0.5;exitY=1;exitDx=0;exitDy=0;entryX=0.5;entryY=0;entryDx=0;entryDy=0;fontFamily=Helvetica;fontSize=12;fontColor=default;movable=0;resizable=0;rotatable=0;deletable=0;editable=0;locked=1;connectable=0;" edge="1" parent="1" source="Cx75ewkhD1ACkf9_SAcO-265" target="Cx75ewkhD1ACkf9_SAcO-269">
          <mxGeometry relative="1" as="geometry">
            <Array as="points">
              <mxPoint x="1840" y="4960" />
              <mxPoint x="1530" y="4960" />
            </Array>
          </mxGeometry>
        </mxCell>
        <mxCell id="Cx75ewkhD1ACkf9_SAcO-315" value="1" style="edgeLabel;html=1;align=center;verticalAlign=middle;resizable=0;points=[];spacingLeft=4;spacingRight=4;fontFamily=Helvetica;fontSize=12;fontColor=default;fillColor=none;gradientColor=none;movable=0;rotatable=0;deletable=0;editable=0;locked=1;connectable=0;" connectable="0" vertex="1" parent="Cx75ewkhD1ACkf9_SAcO-313">
          <mxGeometry x="-0.8539" relative="1" as="geometry">
            <mxPoint as="offset" />
          </mxGeometry>
        </mxCell>
        <mxCell id="Cx75ewkhD1ACkf9_SAcO-316" value="1" style="edgeLabel;html=1;align=center;verticalAlign=middle;resizable=0;points=[];spacingLeft=4;spacingRight=4;fontFamily=Helvetica;fontSize=12;fontColor=default;fillColor=none;gradientColor=none;movable=0;rotatable=0;deletable=0;editable=0;locked=1;connectable=0;" connectable="0" vertex="1" parent="Cx75ewkhD1ACkf9_SAcO-313">
          <mxGeometry x="0.8887" y="3" relative="1" as="geometry">
            <mxPoint as="offset" />
          </mxGeometry>
        </mxCell>
        <mxCell id="Cx75ewkhD1ACkf9_SAcO-265" value="Owner" style="swimlane;fontStyle=1;align=center;verticalAlign=top;childLayout=stackLayout;horizontal=1;startSize=26;horizontalStack=0;resizeParent=1;resizeParentMax=0;resizeLast=0;collapsible=1;marginBottom=0;whiteSpace=wrap;html=1;spacingLeft=4;spacingRight=4;fontFamily=Helvetica;fontSize=12;fontColor=default;fillColor=none;gradientColor=none;movable=0;resizable=0;rotatable=0;deletable=0;editable=0;locked=1;connectable=0;" vertex="1" parent="1">
          <mxGeometry x="1730" y="4240" width="220" height="440" as="geometry" />
        </mxCell>
        <mxCell id="Cx75ewkhD1ACkf9_SAcO-266" value="&lt;p style=&quot;border-color: var(--border-color);&quot; class=&quot;MsoNormal&quot;&gt;Restaurantobj: Restaurant&lt;/p&gt;&lt;p style=&quot;border-color: var(--border-color);&quot; class=&quot;MsoNormal&quot;&gt;foodobj: FoodMenu&lt;/p&gt;&lt;p style=&quot;border-color: var(--border-color);&quot; class=&quot;MsoNormal&quot;&gt;customerObj: Customer&lt;/p&gt;&lt;p style=&quot;border-color: var(--border-color);&quot; class=&quot;MsoNormal&quot;&gt;staff: vector&amp;lt;Staff*&amp;gt;&lt;/p&gt;&lt;p style=&quot;border-color: var(--border-color);&quot; class=&quot;MsoNormal&quot;&gt;FoodItems: vector&amp;lt;FoodMenu&amp;gt;&lt;/p&gt;&lt;p style=&quot;border-color: var(--border-color);&quot; class=&quot;MsoNormal&quot;&gt;customers: vector&amp;lt;CustomerInfo&amp;gt;&lt;/p&gt;&lt;p style=&quot;border-color: var(--border-color);&quot; class=&quot;MsoNormal&quot;&gt;progress: bool&lt;/p&gt;&lt;p style=&quot;border-color: var(--border-color);&quot; class=&quot;MsoNormal&quot;&gt;index: int&lt;/p&gt;&lt;p style=&quot;border-color: var(--border-color);&quot; class=&quot;MsoNormal&quot;&gt;totalOrder: int&lt;/p&gt;&lt;p style=&quot;border-color: var(--border-color);&quot; class=&quot;MsoNormal&quot;&gt;option: int&lt;/p&gt;" style="text;strokeColor=none;fillColor=none;align=left;verticalAlign=top;spacingLeft=4;spacingRight=4;overflow=hidden;rotatable=0;points=[[0,0.5],[1,0.5]];portConstraint=eastwest;whiteSpace=wrap;html=1;fontFamily=Helvetica;fontSize=12;fontColor=default;movable=0;resizable=0;deletable=0;editable=0;locked=1;connectable=0;" vertex="1" parent="Cx75ewkhD1ACkf9_SAcO-265">
          <mxGeometry y="26" width="220" height="284" as="geometry" />
        </mxCell>
        <mxCell id="Cx75ewkhD1ACkf9_SAcO-267" value="" style="line;strokeWidth=1;fillColor=none;align=left;verticalAlign=middle;spacingTop=-1;spacingLeft=3;spacingRight=3;rotatable=0;labelPosition=right;points=[];portConstraint=eastwest;strokeColor=inherit;fontFamily=Helvetica;fontSize=12;fontColor=default;movable=0;resizable=0;deletable=0;editable=0;locked=1;connectable=0;" vertex="1" parent="Cx75ewkhD1ACkf9_SAcO-265">
          <mxGeometry y="310" width="220" height="8" as="geometry" />
        </mxCell>
        <mxCell id="Cx75ewkhD1ACkf9_SAcO-268" value="&lt;div&gt;+ Owner()&lt;/div&gt;&lt;div&gt;+ DisplayEmployee(vector&amp;lt;Staff*&amp;gt;&amp;amp;)&lt;/div&gt;&lt;div&gt;+ getStaff(): vector&amp;lt;Staff*&amp;gt;&amp;amp;&lt;/div&gt;&lt;div&gt;+ WriteToFile_Staff()&lt;/div&gt;&lt;div&gt;+ LoadFromFile_staff()&lt;/div&gt;&lt;div&gt;+ staffRoleToString(StaffRole)&lt;/div&gt;&lt;div&gt;+ startOwner()&lt;/div&gt;" style="text;strokeColor=none;fillColor=none;align=left;verticalAlign=top;spacingLeft=4;spacingRight=4;overflow=hidden;rotatable=0;points=[[0,0.5],[1,0.5]];portConstraint=eastwest;whiteSpace=wrap;html=1;fontFamily=Helvetica;fontSize=12;fontColor=default;movable=0;resizable=0;deletable=0;editable=0;locked=1;connectable=0;" vertex="1" parent="Cx75ewkhD1ACkf9_SAcO-265">
          <mxGeometry y="318" width="220" height="122" as="geometry" />
        </mxCell>
        <mxCell id="Cx75ewkhD1ACkf9_SAcO-269" value="Menu" style="swimlane;fontStyle=1;align=center;verticalAlign=top;childLayout=stackLayout;horizontal=1;startSize=26;horizontalStack=0;resizeParent=1;resizeParentMax=0;resizeLast=0;collapsible=1;marginBottom=0;whiteSpace=wrap;html=1;spacingLeft=4;spacingRight=4;fontFamily=Helvetica;fontSize=12;fontColor=default;fillColor=none;gradientColor=none;movable=0;resizable=0;rotatable=0;deletable=0;editable=0;locked=1;connectable=0;" vertex="1" parent="1">
          <mxGeometry x="1420" y="5050" width="220" height="340" as="geometry" />
        </mxCell>
        <mxCell id="Cx75ewkhD1ACkf9_SAcO-270" value="&lt;p style=&quot;border-color: var(--border-color);&quot; class=&quot;MsoNormal&quot;&gt;-ownerobj: Owner&lt;/p&gt;&lt;p style=&quot;border-color: var(--border-color);&quot; class=&quot;MsoNormal&quot;&gt;-customerobj: Customer&lt;/p&gt;&lt;p style=&quot;border-color: var(--border-color);&quot; class=&quot;MsoNormal&quot;&gt;-RestaurantObj: Restaurant&lt;/p&gt;&lt;p style=&quot;border-color: var(--border-color);&quot; class=&quot;MsoNormal&quot;&gt;-foodobj: FoodMenu&lt;/p&gt;&lt;p style=&quot;border-color: var(--border-color);&quot; class=&quot;MsoNormal&quot;&gt;-customers: vector&amp;lt;CustomerInfo&amp;gt;&lt;/p&gt;&lt;p style=&quot;border-color: var(--border-color);&quot; class=&quot;MsoNormal&quot;&gt;-FoodItems: vector&amp;lt;FoodMenu&amp;gt;&lt;/p&gt;&lt;p style=&quot;border-color: var(--border-color);&quot; class=&quot;MsoNormal&quot;&gt;-choice: int&lt;/p&gt;&lt;p style=&quot;border-color: var(--border-color);&quot; class=&quot;MsoNormal&quot;&gt;-ans: char&lt;/p&gt;&lt;p style=&quot;border-color: var(--border-color);&quot; class=&quot;MsoNormal&quot;&gt;-keepgoing: bool&lt;/p&gt;" style="text;strokeColor=none;fillColor=none;align=left;verticalAlign=top;spacingLeft=4;spacingRight=4;overflow=hidden;rotatable=0;points=[[0,0.5],[1,0.5]];portConstraint=eastwest;whiteSpace=wrap;html=1;fontFamily=Helvetica;fontSize=12;fontColor=default;movable=0;resizable=0;deletable=0;editable=0;locked=1;connectable=0;" vertex="1" parent="Cx75ewkhD1ACkf9_SAcO-269">
          <mxGeometry y="26" width="220" height="254" as="geometry" />
        </mxCell>
        <mxCell id="Cx75ewkhD1ACkf9_SAcO-271" value="" style="line;strokeWidth=1;fillColor=none;align=left;verticalAlign=middle;spacingTop=-1;spacingLeft=3;spacingRight=3;rotatable=0;labelPosition=right;points=[];portConstraint=eastwest;strokeColor=inherit;fontFamily=Helvetica;fontSize=12;fontColor=default;movable=0;resizable=0;deletable=0;editable=0;locked=1;connectable=0;" vertex="1" parent="Cx75ewkhD1ACkf9_SAcO-269">
          <mxGeometry y="280" width="220" height="8" as="geometry" />
        </mxCell>
        <mxCell id="Cx75ewkhD1ACkf9_SAcO-272" value="&lt;div&gt;+ Menu()&lt;/div&gt;&lt;div&gt;+ menu()&lt;/div&gt;" style="text;strokeColor=none;fillColor=none;align=left;verticalAlign=top;spacingLeft=4;spacingRight=4;overflow=hidden;rotatable=0;points=[[0,0.5],[1,0.5]];portConstraint=eastwest;whiteSpace=wrap;html=1;fontFamily=Helvetica;fontSize=12;fontColor=default;movable=0;resizable=0;deletable=0;editable=0;locked=1;connectable=0;" vertex="1" parent="Cx75ewkhD1ACkf9_SAcO-269">
          <mxGeometry y="288" width="220" height="52" as="geometry" />
        </mxCell>
        <mxCell id="Cx75ewkhD1ACkf9_SAcO-282" style="edgeStyle=orthogonalEdgeStyle;rounded=0;orthogonalLoop=1;jettySize=auto;html=1;exitX=1;exitY=0.5;exitDx=0;exitDy=0;entryX=0;entryY=0.5;entryDx=0;entryDy=0;fontFamily=Helvetica;fontSize=12;fontColor=default;movable=0;resizable=0;rotatable=0;deletable=0;editable=0;locked=1;connectable=0;" edge="1" parent="1" source="Cx75ewkhD1ACkf9_SAcO-247" target="Cx75ewkhD1ACkf9_SAcO-249">
          <mxGeometry relative="1" as="geometry" />
        </mxCell>
        <mxCell id="Cx75ewkhD1ACkf9_SAcO-308" style="edgeStyle=orthogonalEdgeStyle;rounded=0;orthogonalLoop=1;jettySize=auto;html=1;exitX=1;exitY=0.5;exitDx=0;exitDy=0;entryX=0;entryY=0.5;entryDx=0;entryDy=0;fontFamily=Helvetica;fontSize=12;fontColor=default;movable=0;resizable=0;rotatable=0;deletable=0;editable=0;locked=1;connectable=0;" edge="1" parent="1" source="Cx75ewkhD1ACkf9_SAcO-264" target="Cx75ewkhD1ACkf9_SAcO-266">
          <mxGeometry relative="1" as="geometry" />
        </mxCell>
        <mxCell id="Cx75ewkhD1ACkf9_SAcO-309" value="1" style="edgeLabel;html=1;align=center;verticalAlign=middle;resizable=0;points=[];spacingLeft=4;spacingRight=4;fontFamily=Helvetica;fontSize=12;fontColor=default;fillColor=none;gradientColor=none;movable=0;rotatable=0;deletable=0;editable=0;locked=1;connectable=0;" connectable="0" vertex="1" parent="Cx75ewkhD1ACkf9_SAcO-308">
          <mxGeometry x="0.9283" y="-2" relative="1" as="geometry">
            <mxPoint as="offset" />
          </mxGeometry>
        </mxCell>
        <mxCell id="Cx75ewkhD1ACkf9_SAcO-310" value="*...." style="edgeLabel;html=1;align=center;verticalAlign=middle;resizable=0;points=[];spacingLeft=4;spacingRight=4;fontFamily=Helvetica;fontSize=12;fontColor=default;fillColor=none;gradientColor=none;movable=0;rotatable=0;deletable=0;editable=0;locked=1;connectable=0;" connectable="0" vertex="1" parent="Cx75ewkhD1ACkf9_SAcO-308">
          <mxGeometry x="-0.9053" y="-5" relative="1" as="geometry">
            <mxPoint x="1" as="offset" />
          </mxGeometry>
        </mxCell>
        <mxCell id="G4fQwwRvvV099wJtnHwn-1" value="Order" style="swimlane;fontStyle=1;align=center;verticalAlign=top;childLayout=stackLayout;horizontal=1;startSize=26;horizontalStack=0;resizeParent=1;resizeParentMax=0;resizeLast=0;collapsible=1;marginBottom=0;whiteSpace=wrap;html=1;spacingLeft=4;spacingRight=4;fontFamily=Helvetica;fontSize=12;fontColor=default;fillColor=none;gradientColor=none;movable=0;resizable=0;rotatable=0;deletable=0;editable=0;locked=1;connectable=0;" vertex="1" parent="1">
          <mxGeometry x="169" y="3610" width="220" height="230" as="geometry" />
        </mxCell>
        <mxCell id="G4fQwwRvvV099wJtnHwn-2" value="&lt;p style=&quot;border-color: var(--border-color);&quot; class=&quot;MsoNormal&quot;&gt;- itemName: string&lt;/p&gt;&lt;p style=&quot;border-color: var(--border-color);&quot; class=&quot;MsoNormal&quot;&gt;- quantity: int&lt;/p&gt;&lt;p style=&quot;border-color: var(--border-color);&quot; class=&quot;MsoNormal&quot;&gt;- pricePerItem: double&lt;/p&gt;" style="text;strokeColor=none;fillColor=none;align=left;verticalAlign=top;spacingLeft=4;spacingRight=4;overflow=hidden;rotatable=0;points=[[0,0.5],[1,0.5]];portConstraint=eastwest;whiteSpace=wrap;html=1;fontFamily=Helvetica;fontSize=12;fontColor=default;movable=0;resizable=0;deletable=0;editable=0;locked=1;connectable=0;" vertex="1" parent="G4fQwwRvvV099wJtnHwn-1">
          <mxGeometry y="26" width="220" height="94" as="geometry" />
        </mxCell>
        <mxCell id="G4fQwwRvvV099wJtnHwn-3" value="" style="line;strokeWidth=1;fillColor=none;align=left;verticalAlign=middle;spacingTop=-1;spacingLeft=3;spacingRight=3;rotatable=0;labelPosition=right;points=[];portConstraint=eastwest;strokeColor=inherit;fontFamily=Helvetica;fontSize=12;fontColor=default;movable=0;resizable=0;deletable=0;editable=0;locked=1;connectable=0;" vertex="1" parent="G4fQwwRvvV099wJtnHwn-1">
          <mxGeometry y="120" width="220" height="8" as="geometry" />
        </mxCell>
        <mxCell id="G4fQwwRvvV099wJtnHwn-4" value="&lt;div&gt;+ Order(string, int, double)&lt;/div&gt;&lt;div&gt;+ getitemName(): string&lt;/div&gt;&lt;div&gt;+ getQuantity(): int&lt;/div&gt;&lt;div&gt;+ getprice(): double&lt;/div&gt;&lt;div&gt;+ getTotalPrice() const: double&lt;/div&gt;&lt;div&gt;&lt;span style=&quot;background-color: initial;&quot;&gt;+ displayOrder() const: void&lt;/span&gt;&lt;br&gt;&lt;/div&gt;" style="text;strokeColor=none;fillColor=none;align=left;verticalAlign=top;spacingLeft=4;spacingRight=4;overflow=hidden;rotatable=0;points=[[0,0.5],[1,0.5]];portConstraint=eastwest;whiteSpace=wrap;html=1;fontFamily=Helvetica;fontSize=12;fontColor=default;movable=0;resizable=0;deletable=0;editable=0;locked=1;connectable=0;" vertex="1" parent="G4fQwwRvvV099wJtnHwn-1">
          <mxGeometry y="128" width="220" height="102" as="geometry" />
        </mxCell>
        <mxCell id="G4fQwwRvvV099wJtnHwn-6" value="" style="endArrow=classic;startArrow=classic;html=1;rounded=0;exitX=1;exitY=0.5;exitDx=0;exitDy=0;entryX=0;entryY=0.5;entryDx=0;entryDy=0;movable=0;resizable=0;rotatable=0;deletable=0;editable=0;locked=1;connectable=0;" edge="1" parent="1" source="G4fQwwRvvV099wJtnHwn-4" target="Cx75ewkhD1ACkf9_SAcO-245">
          <mxGeometry width="50" height="50" relative="1" as="geometry">
            <mxPoint x="940" y="3890" as="sourcePoint" />
            <mxPoint x="990" y="3840" as="targetPoint" />
            <Array as="points">
              <mxPoint x="440" y="3789" />
              <mxPoint x="440" y="3760" />
              <mxPoint x="520" y="3760" />
              <mxPoint x="520" y="3706" />
            </Array>
          </mxGeometry>
        </mxCell>
        <mxCell id="G4fQwwRvvV099wJtnHwn-7" value="*" style="edgeLabel;html=1;align=center;verticalAlign=middle;resizable=0;points=[];movable=0;rotatable=0;deletable=0;editable=0;locked=1;connectable=0;" connectable="0" vertex="1" parent="G4fQwwRvvV099wJtnHwn-6">
          <mxGeometry x="0.8495" y="1" relative="1" as="geometry">
            <mxPoint as="offset" />
          </mxGeometry>
        </mxCell>
        <mxCell id="G4fQwwRvvV099wJtnHwn-8" value="*" style="edgeLabel;html=1;align=center;verticalAlign=middle;resizable=0;points=[];movable=0;rotatable=0;deletable=0;editable=0;locked=1;connectable=0;" connectable="0" vertex="1" parent="G4fQwwRvvV099wJtnHwn-6">
          <mxGeometry x="-0.8812" y="2" relative="1" as="geometry">
            <mxPoint as="offset" />
          </mxGeometry>
        </mxCell>
        <mxCell id="G4fQwwRvvV099wJtnHwn-9" value="" style="endArrow=classic;startArrow=classic;html=1;rounded=0;exitX=0.499;exitY=1;exitDx=0;exitDy=0;entryX=0.002;entryY=0.473;entryDx=0;entryDy=0;exitPerimeter=0;entryPerimeter=0;movable=0;resizable=0;rotatable=0;deletable=0;editable=0;locked=1;connectable=0;" edge="1" parent="1" source="G4fQwwRvvV099wJtnHwn-4" target="Cx75ewkhD1ACkf9_SAcO-262">
          <mxGeometry width="50" height="50" relative="1" as="geometry">
            <mxPoint x="313" y="3903" as="sourcePoint" />
            <mxPoint x="514" y="3820" as="targetPoint" />
            <Array as="points">
              <mxPoint x="280" y="3910" />
              <mxPoint x="280" y="3990" />
              <mxPoint x="280" y="4450" />
            </Array>
          </mxGeometry>
        </mxCell>
        <mxCell id="G4fQwwRvvV099wJtnHwn-10" value="*" style="edgeLabel;html=1;align=center;verticalAlign=middle;resizable=0;points=[];movable=0;rotatable=0;deletable=0;editable=0;locked=1;connectable=0;" connectable="0" vertex="1" parent="G4fQwwRvvV099wJtnHwn-9">
          <mxGeometry x="0.8495" y="1" relative="1" as="geometry">
            <mxPoint as="offset" />
          </mxGeometry>
        </mxCell>
        <mxCell id="G4fQwwRvvV099wJtnHwn-11" value="*" style="edgeLabel;html=1;align=center;verticalAlign=middle;resizable=0;points=[];movable=0;rotatable=0;deletable=0;editable=0;locked=1;connectable=0;" connectable="0" vertex="1" parent="G4fQwwRvvV099wJtnHwn-9">
          <mxGeometry x="-0.8812" y="2" relative="1" as="geometry">
            <mxPoint as="offset" />
          </mxGeometry>
        </mxCell>
      </root>
    </mxGraphModel>
  </diagram>
</mxfile>
